<?xml version="1.0" encoding="utf-8"?>
<!-- Generator: Adobe Illustrator 25.2.1, SVG Export Plug-In . SVG Version: 6.00 Build 0)  -->
<svg version="1.1" xmlns="http://www.w3.org/2000/svg" xmlns:xlink="http://www.w3.org/1999/xlink" x="0px" y="0px"
	 viewBox="0 0 1000 1000" style="enable-background:new 0 0 1000 1000;" xml:space="preserve">
<style type="text/css">
	.st0{fill:#222018;}
	.st1{fill:#42371C;}
	.st2{fill:#957731;}
</style>
<g id="Capa_6">
	<rect class="st0" width="1000" height="1000"/>
</g>
<g id="Capa_4">
	<circle class="st0" cx="500" cy="500" r="500"/>
</g>
<g id="Capa_5">
	<path class="st1" d="M571.4,673.4c-43.9,9.5-80.8-12.1-88.5-46.3h-3.8c-10.8,33.4-50,60.3-90.6,47.7c-40.8-12.7-64-64.7-53.5-98.3
		c10.5-33.7,49.7-41,90.6-28.3c15.6,4.9,28.7,12.6,38.3,22.1h42.9c13.2-11.6,30.6-20.6,49.3-24.6c44.1-9.6,103.2-25.7,110.7,8.8
		C674.3,588.9,615.4,663.9,571.4,673.4z"/>
</g>
<g id="Capa_1">
	<g>
		<path class="st1" d="M425.2,485.3c0,0.1-0.1,0.1-0.2,0.2c0,0.1,0,0.2,0,0.3c0,1.6-0.7,3.3-2,4.5l-84.4,75.8
			c-2.5,2.2-6.3,2-8.5-0.5L208.1,429.9c-2.2-2.5-2-6.3,0.5-8.5l25.9-23.3l-8.5-15.2c-1.6-2.9-0.6-6.6,2.3-8.2l35.9-20.1l-5.1-19.9
			c-0.8-3.2,1.1-6.5,4.3-7.3l109.9-28.1c3.2-0.8,6.5,1.1,7.3,4.3L426,480.4C426.4,482.2,426.1,483.9,425.2,485.3z"/>
		<path class="st1" d="M425.2,485.3c0,0.2-0.1,0.4-0.1,0.5c0-0.1,0-0.2,0-0.3C425.1,485.4,425.1,485.4,425.2,485.3z"/>
	</g>
	<path class="st1" d="M631.3,378.5c0.1,2.4,1.1,4.9,3,8.4C632.2,383.5,631.2,381.1,631.3,378.5z"/>
	<path class="st1" d="M750.8,378.9c0,1.7-0.6,3.3-1.5,5C750.3,382.1,750.7,380.5,750.8,378.9z"/>
	<path class="st1" d="M771,410.1c0,21.6-9,41.1-23.5,55.3c-7.2,7.1-15.9,9-25.4,13c-9.6,4-20.1,3.6-31.1,3.6
		c-11,0-21.6,0.3-31.1-3.6c-9.6-4-18.2-5.9-25.4-13c-14.5-14.1-23.4-33.7-23.4-55.3c0-21.6,9-41.1,23.4-55.3c-1.9-3.5-3-5.9-3-8.4
		c0.1-2.4,1.1-4.9,3-8.4l0,0c2-2,5.4-3.5,9.7-4.7l-10.1-22l-19.1-41.5c-9.7,5.2-13.9-4-4.2-9.2L598,233.1l11.6-6.3
		c0,0,10.1,21.9,12.7,27.6c9.7-5.2,13.9,4,4.2,9.2l19.1,41.5l11.9,25.8c14.6-1.8,30.7-1.6,33.6-1.6c8,0,45.2-0.2,56.6,8.8l0,0
		c0.2,0.2,0.3,0.5,0.5,0.7c0.1,0.2,0.2,0.4,0.3,0.5c1.6,2.6,2.4,4.7,2.5,6.8c0,0.3,0,0.5,0,0.8c-0.1,1.6-0.5,3.2-1.5,5
		c-0.2,0.4-0.4,0.8-0.6,1.1c-0.1,0.2-0.2,0.4-0.4,0.6c-0.2,0.4-0.5,0.8-0.8,1.2h0C762,369,771,388.5,771,410.1z"/>
	<g>
		<path class="st1" d="M631.3,378.5c-0.1-2.5,0.9-5,3-8.4C632.5,373.6,631.4,376.1,631.3,378.5z"/>
		<polygon class="st1" points="634.4,370.1 634.4,370.1 634.4,370.2 		"/>
		<polygon class="st1" points="747.6,370.1 747.6,370.1 747.6,370.2 		"/>
		<path class="st1" d="M750.8,378.1c-0.1-2-0.9-4.2-2.5-6.8C749.8,373.8,750.7,375.9,750.8,378.1z"/>
	</g>
	<g>
		<g>
			<path class="st2" d="M184,194.7l-8.8-9.6l3.4-3.1l5.5,4.5c0.3,0.2,0.6,0.3,1.1,0.3c0.5,0,0.8,0,1.2-0.1c0.9-0.1,1.9-0.4,2.9-0.6
				c1-0.3,2-0.7,3-1.2c1-0.5,2-1.2,2.9-2.1c2.7-2.5,4.3-5,4.8-7.5c0.5-2.5-0.1-4.7-1.8-6.6c-1.3-1.4-2.8-2.2-4.6-2.4
				c-1.7-0.2-3.7,0.1-5.7,0.9c-2,0.7-4,1.5-5.8,2.3c-1.9,0.8-3.7,1.6-5.5,2.3c-2.8,1-5.5,1.3-8.1,0.8c-2.6-0.5-4.8-1.8-6.8-3.9
				c-1.7-1.9-2.8-4.1-3-6.6c-0.3-2.5,0.1-5,1.2-7.6c1.1-2.6,2.8-4.9,5.1-7c1.4-1.3,2.8-2.4,4.2-3.4s2.8-1.9,4.2-2.7
				c1.4-0.8,2.7-1.5,3.9-2.3l8.5,9.3l-3.4,3.1l-5.2-4.2c-0.3-0.2-0.6-0.3-1.1-0.3c-0.5,0-0.9,0.1-1.2,0.1c-0.6,0.1-1.2,0.2-1.9,0.4
				s-1.4,0.5-2.2,1c-0.8,0.4-1.6,1.1-2.5,1.8c-2.5,2.3-3.9,4.5-4.4,6.7c-0.4,2.2,0,4,1.2,5.4c1.1,1.2,2.6,2.1,4.3,2.5s3.9,0.1,6.6-1
				c1.8-0.8,3.6-1.5,5.3-2.2c1.7-0.7,3.6-1.5,5.8-2.2c1.6-0.5,3.2-0.9,4.9-1.1c1.7-0.2,3.5,0,5.2,0.6c1.7,0.6,3.4,1.7,5,3.5
				c1.7,1.8,2.7,4,3.3,6.5c0.5,2.5,0.2,5.2-1,8.1c-1.2,2.9-3.4,5.9-6.8,9c-1.2,1.1-2.5,2.1-4.1,3.1c-1.5,1-3.1,1.9-4.8,2.8
				C187.3,192.9,185.6,193.8,184,194.7z"/>
			<path class="st2" d="M234.4,142.4l1-0.7l2.6,3.3c-0.5,2.1-1.3,4.5-2.4,7c-1.1,2.5-2.9,4.7-5.4,6.6c-2.8,2.2-5.7,3.4-8.8,3.7
				c-3,0.3-6-0.2-8.8-1.6c-2.8-1.4-5.4-3.6-7.7-6.5c-1.8-2.4-3-4.8-3.6-7.5c-0.6-2.6-0.6-5.2-0.2-7.7c0.5-2.6,1.3-4.9,2.6-7.1
				c1.3-2.2,2.8-4,4.7-5.4c1.4-1.1,2.7-1.9,4.1-2.5c1.3-0.6,2.5-1,3.6-1.2c1.1-0.3,1.9-0.5,2.5-0.6l4.4,5.7l-1.3,1
				c-1.4,0.2-2.7,0.3-4.1,0.5c-1.4,0.1-2.8,0.4-4.3,0.8c-1.4,0.4-2.9,1.2-4.4,2.4c-0.6,0.5-1.3,1.2-2,2.2s-1,2-1.1,2.9
				c-0.1,0.8,0,1.6,0.1,2.6c0.1,1,0.5,2.1,1.1,3.4c0.6,1.3,1.7,3,3.2,5c2.8,3.6,5.8,5.9,8.9,6.7c3.2,0.8,6.3,0,9.3-2.3
				c1.3-1,2.3-2.1,3.1-3.4c0.8-1.3,1.4-2.6,1.8-3.8C233.7,144.5,234,143.4,234.4,142.4z"/>
			<path class="st2" d="M242.3,144.8l2.7-3.5c0.3-0.4,0.5-0.7,0.5-1s0-0.6-0.3-1L224,105.8c-0.2-0.4-0.5-0.6-0.9-0.6
				c-0.3,0-0.7,0-1,0l-5,0.7l-1.5-2.4l10.8-6.9l9.7,15.4l1,1.6c0.2-2.2,0.6-4.1,1.3-5.5c0.7-1.4,1.5-2.6,2.5-3.6
				c1-0.9,2-1.7,3.1-2.4c1.8-1.2,3.7-1.9,5.7-2.1c2-0.2,3.9,0.1,5.7,1.1c1.9,1,3.6,2.7,5.1,5.1l10.5,16.6c0.3,0.5,0.6,0.7,0.9,0.8
				c0.3,0.1,0.7,0.1,1,0l4-0.8l1.5,2.3l-14.1,8.9l-1.5-2.3l2-3c0.2-0.3,0.4-0.6,0.5-1s0-0.7-0.3-1.2l-8.9-14
				c-1.1-1.8-2.3-3.2-3.4-4.3c-1.1-1-2.4-1.6-3.8-1.6c-1.4,0-3,0.6-4.9,1.8c-1.3,0.8-2.5,1.8-3.6,3.1c-1.1,1.3-1.8,2.7-2,4.5
				l12.5,19.7c0.2,0.4,0.5,0.6,0.8,0.6c0.3,0,0.7,0,1.1,0l3.4-0.4l1.5,2.3l-14.2,9L242.3,144.8z"/>
			<path class="st2" d="M298.9,115.6c-3.2,1.6-6.3,2.3-9.4,2.2c-3.1-0.2-6-1.2-8.6-3.1c-2.7-1.9-4.9-4.6-6.7-8.2
				c-1.7-3.3-2.5-6.6-2.5-9.9s0.9-6.3,2.5-9.1c1.7-2.8,4.2-5,7.5-6.7c3.6-1.8,7-2.6,10.2-2.2c3.2,0.4,6,1.6,8.5,3.6s4.5,4.6,6.1,7.6
				c1.6,3.3,2.5,6.5,2.5,9.8c0,3.3-0.8,6.3-2.5,9.1C304.7,111.7,302.2,113.9,298.9,115.6z M297.4,111.7c1.8-0.9,3-2,3.8-3.4
				c0.8-1.4,1.2-2.9,1.2-4.5c0-1.6-0.2-3.3-0.7-5c-0.5-1.7-1.1-3.3-1.8-4.7c-1.2-2.4-2.7-4.6-4.4-6.4c-1.7-1.8-3.6-3.1-5.7-3.7
				c-2.1-0.7-4.3-0.4-6.7,0.8c-1.7,0.9-3,2-3.8,3.4c-0.8,1.4-1.2,2.9-1.2,4.5c0,1.6,0.2,3.3,0.7,4.9c0.5,1.7,1.1,3.2,1.8,4.7
				c0.8,1.6,1.8,3.2,3,4.7s2.5,2.8,3.9,3.9c1.4,1.1,3,1.7,4.7,1.9C293.8,113,295.6,112.7,297.4,111.7z"/>
			<path class="st2" d="M337,98.5c-3.3,1.3-6.5,1.7-9.6,1.3c-3.1-0.5-5.8-1.8-8.3-3.9c-2.5-2.1-4.4-5.1-5.9-8.8
				c-1.3-3.4-1.9-6.8-1.5-10.1s1.4-6.2,3.4-8.8c1.9-2.6,4.6-4.6,8.1-5.9c3.8-1.5,7.2-1.9,10.4-1.2c3.1,0.7,5.8,2.2,8.1,4.4
				s4.1,5,5.3,8.2c1.3,3.4,1.9,6.7,1.5,10s-1.4,6.2-3.3,8.8C343.2,95.2,340.5,97.2,337,98.5z M335.9,94.5c1.8-0.7,3.2-1.7,4.1-3
				c0.9-1.3,1.4-2.8,1.6-4.4c0.2-1.6,0.1-3.3-0.2-5c-0.3-1.7-0.8-3.3-1.4-4.9c-1-2.5-2.3-4.8-3.8-6.8c-1.5-2-3.3-3.4-5.4-4.3
				c-2-0.8-4.3-0.8-6.7,0.2c-1.8,0.7-3.2,1.7-4.1,3c-0.9,1.3-1.5,2.7-1.6,4.4c-0.2,1.6-0.1,3.3,0.2,5c0.3,1.7,0.8,3.3,1.4,4.9
				c0.7,1.7,1.5,3.4,2.5,5c1,1.6,2.2,3,3.5,4.2c1.3,1.2,2.8,2,4.5,2.4C332.2,95.5,334,95.3,335.9,94.5z"/>
			<path class="st2" d="M358.3,89.8l-0.8-2.6l4.7-3c0.3-0.2,0.6-0.5,0.8-0.8c0.2-0.3,0.2-0.7,0-1.1l-11.7-38
				c-0.1-0.4-0.4-0.7-0.7-0.9c-0.3-0.1-0.7-0.2-1-0.2l-6.1-0.3l-0.8-2.7l13.4-4.1l13.6,44.2c0.1,0.4,0.4,0.7,0.7,0.9
				c0.3,0.1,0.7,0.2,1,0.2l5.6-0.2l0.8,2.6L358.3,89.8z"/>
			<path class="st2" d="M403.6,75.1l-2.3-12.8l4.5-0.8l2.2,6.7c0.1,0.3,0.3,0.6,0.7,0.8c0.4,0.2,0.7,0.4,1,0.5
				c0.8,0.4,1.8,0.7,2.7,1c1,0.3,2.1,0.5,3.2,0.6s2.3,0,3.6-0.2c3.6-0.6,6.3-1.9,8.1-3.7c1.8-1.8,2.4-4,2-6.5
				c-0.3-1.9-1.2-3.4-2.6-4.5c-1.4-1.1-3.2-1.8-5.3-2.3c-2.1-0.5-4.1-0.8-6.1-1.1c-2-0.3-4-0.6-5.9-1.1c-2.9-0.6-5.3-1.9-7.3-3.6
				c-1.9-1.8-3.1-4.1-3.7-7c-0.5-2.5-0.1-4.9,1-7.2c1.1-2.2,2.8-4.2,5.1-5.7c2.3-1.6,5-2.6,8-3.2c1.9-0.3,3.7-0.5,5.4-0.6
				c1.7-0.1,3.4-0.1,4.9,0c1.6,0.1,3.1,0.1,4.5,0.2l2.2,12.5l-4.5,0.8l-2.1-6.3c-0.1-0.3-0.4-0.6-0.8-0.8c-0.4-0.2-0.8-0.4-1.1-0.5
				c-0.5-0.2-1.1-0.5-1.8-0.7c-0.7-0.2-1.5-0.3-2.4-0.4c-0.9,0-1.9,0-3.1,0.2c-3.3,0.6-5.7,1.7-7.3,3.3c-1.6,1.6-2.2,3.4-1.8,5.2
				c0.3,1.7,1.1,3.1,2.3,4.4s3.3,2.2,6.2,2.7c1.9,0.3,3.8,0.7,5.7,1c1.8,0.3,3.9,0.7,6.1,1.2c1.6,0.4,3.2,0.9,4.8,1.7
				c1.6,0.8,2.9,1.9,4.1,3.3c1.2,1.4,2,3.3,2.4,5.6c0.4,2.4,0.2,4.8-0.7,7.2c-0.9,2.4-2.6,4.5-5.2,6.3s-6,3.2-10.5,4
				c-1.6,0.3-3.3,0.4-5.1,0.4s-3.7-0.1-5.6-0.2C407.3,75.4,405.4,75.3,403.6,75.1z"/>
			<path class="st2" d="M462.2,69.3c-3.3,0.3-6.4-0.2-9.3-1.4s-5.2-3.2-7-5.9c-1.8-2.7-2.9-6.1-3.3-10.1c-0.3-3.7,0.2-7.1,1.4-10.2
				c1.3-3.1,3.2-5.6,5.8-7.6s5.6-3.1,9.1-3.4c3.3-0.3,6.2,0.1,8.7,1.3c2.5,1.1,4.4,2.8,5.9,4.9c1.4,2.1,2.3,4.5,2.5,7.2
				c0,0.3,0,0.7,0.1,1.2c0,0.5,0,1,0,1.5c0,0.5,0,0.9-0.1,1.3l-26.6,2.3l-0.1-3.9l19.3-1.7c-0.2-2.3-0.6-4.1-1.3-5.7
				c-0.7-1.5-1.7-2.7-3.1-3.4c-1.4-0.7-3.1-1-5.2-0.8c-2,0.2-3.7,0.7-4.9,1.7c-1.3,0.9-2.2,2.1-2.9,3.6c-0.7,1.5-1.1,3-1.2,4.7
				s-0.2,3.4,0,5c0.3,2.9,0.9,5.5,2,7.6c1.1,2.2,2.6,3.8,4.7,4.9c2,1.1,4.6,1.5,7.8,1.3c1.7-0.1,3.3-0.5,4.8-1.2
				c1.5-0.7,2.8-1.4,4-2.2c1.2-0.8,2.2-1.6,2.9-2.2L477,58l0.4,4.3c-1.6,1.5-3.8,3-6.5,4.5S465.3,69.1,462.2,69.3z"/>
			<path class="st2" d="M514.7,57.3l1.2,0l0.1,4.2c-1.7,1.4-3.7,2.8-6.1,4.2s-5.1,2.1-8.3,2.1c-3.5,0.1-6.6-0.7-9.2-2.2
				c-2.6-1.6-4.6-3.7-6.1-6.6c-1.4-2.8-2.2-6.1-2.3-9.8c0-3,0.5-5.7,1.6-8.1c1.1-2.4,2.6-4.5,4.5-6.3c1.9-1.8,4-3.2,6.3-4.1
				c2.3-1,4.6-1.5,7-1.5c1.8,0,3.3,0.1,4.7,0.4c1.4,0.3,2.6,0.7,3.6,1.1c1,0.4,1.8,0.8,2.4,1l0.1,7.2l-1.7,0
				c-1.2-0.7-2.4-1.4-3.6-2.1c-1.2-0.7-2.5-1.4-3.9-1.9c-1.4-0.5-3.1-0.8-5-0.7c-0.8,0-1.8,0.2-2.9,0.6c-1.1,0.4-2,1-2.6,1.7
				c-0.5,0.6-1,1.3-1.5,2.1c-0.5,0.8-0.9,2-1.1,3.4s-0.4,3.4-0.4,5.9c0.1,4.6,1.1,8.1,3.2,10.7s5,3.8,8.8,3.7c1.6,0,3.1-0.3,4.5-0.9
				c1.4-0.6,2.6-1.2,3.7-2C512.9,58.6,513.8,57.9,514.7,57.3z"/>
			<path class="st2" d="M520.1,67.2l0.2-2.7l4.3-1.1c0.4-0.1,0.7-0.2,0.9-0.4c0.3-0.2,0.4-0.5,0.4-1l1.8-23.5c0-0.6-0.1-1-0.4-1.3
				s-0.6-0.5-0.8-0.7l-4.3-2.3l0.2-2.8l12.4-0.8l-0.6,7.9l0.4,0c1.7-2.1,3.2-3.6,4.6-4.7c1.3-1.1,2.6-1.8,3.8-2.2
				c1.2-0.4,2.3-0.5,3.5-0.4c1,0.1,2.1,0.3,3.4,0.6c1.2,0.4,2.3,1,3.1,2.1l-0.6,8.4l-4.7-0.4l-0.8-2.5c-0.2-0.6-0.6-1.1-1.3-1.6
				c-0.7-0.4-1.4-0.7-2.2-0.7c-1.3-0.1-2.5,0.1-3.6,0.7c-1.1,0.6-2,1.2-2.9,2.1c-0.9,0.8-1.7,1.6-2.4,2.4l-1.5,20.2
				c-0.1,0.8,0.3,1.3,1.2,1.6l5.3,1.9l-0.2,2.7L520.1,67.2z"/>
			<path class="st2" d="M571.8,73.5c-3.3-0.5-6.2-1.7-8.6-3.6c-2.5-1.9-4.3-4.3-5.4-7.4c-1.1-3.1-1.4-6.6-0.7-10.6
				c0.6-3.7,1.9-6.9,3.9-9.6c2-2.7,4.5-4.7,7.4-6c2.9-1.3,6.1-1.6,9.6-1.1c3.3,0.5,6,1.6,8.1,3.3c2.1,1.7,3.6,3.7,4.5,6.1
				c0.9,2.4,1.1,4.9,0.7,7.6c0,0.3-0.1,0.7-0.2,1.2c-0.1,0.5-0.2,1-0.4,1.5c-0.1,0.5-0.3,0.9-0.4,1.2l-26.4-4.2l0.8-3.8l19.1,3.1
				c0.4-2.2,0.4-4.2,0.1-5.8c-0.3-1.7-1-3-2.2-4c-1.1-1-2.8-1.7-4.9-2.1c-2-0.3-3.8-0.2-5.2,0.4c-1.5,0.6-2.7,1.5-3.7,2.8
				c-1,1.3-1.8,2.7-2.3,4.3c-0.6,1.6-1,3.2-1.3,4.9c-0.5,2.9-0.4,5.5,0.1,7.9c0.5,2.4,1.6,4.3,3.3,5.9c1.7,1.6,4.1,2.6,7.2,3.1
				c1.7,0.3,3.4,0.3,5,0c1.6-0.3,3.1-0.7,4.4-1.2c1.3-0.5,2.5-1,3.4-1.4l1.1,0.2l-0.7,4.2c-2,1.1-4.4,2-7.4,2.8
				C578,73.9,574.9,74,571.8,73.5z"/>
			<path class="st2" d="M625.9,46.4l-1,4.1l-12.7-3l-5.5,22.8c-0.3,1.1-0.1,2,0.6,2.8c0.6,0.8,1.5,1.5,2.4,2.1
				c1,0.5,1.8,0.9,2.6,1.1c0.8,0.2,1.7,0.3,2.8,0.3c1.1,0,1.9-0.1,2.4-0.2l1.3,0.3l-0.7,2.9c-0.4,0.2-1.3,0.4-2.5,0.7
				c-1.2,0.3-2.6,0.5-4.1,0.6c-1.5,0.1-2.9,0-4.3-0.3c-1.7-0.4-3.2-1.1-4.6-2c-1.3-0.9-2.4-2-3-3.3c-0.7-1.3-0.8-2.7-0.5-4.1
				l6.1-25.4l-5.8-1.4l0.8-3.4c1.3,0.1,2.5,0.2,3.5,0.2c1,0,1.9-0.3,2.6-0.8c0.7-0.5,1.3-1.6,1.8-3.1l1.5-5l6,0.3l-2.6,10.7
				L625.9,46.4z"/>
			<path class="st2" d="M663.4,99c-4.7-1.9-8.3-4.4-10.9-7.6c-2.5-3.2-4-6.9-4.3-11.1c-0.3-4.2,0.5-8.8,2.4-13.7
				c1.8-4.6,4.3-8.3,7.5-11.2c3.2-2.8,6.8-4.6,10.9-5.3c4.1-0.7,8.4-0.1,13,1.7c5,2,8.7,4.6,11.2,7.9c2.4,3.3,3.7,7.1,3.9,11.2
				c0.2,4.2-0.6,8.5-2.4,13c-1.2,3-2.8,5.8-4.7,8.3c-2,2.5-4.3,4.5-6.9,6c-2.7,1.5-5.6,2.4-8.9,2.6
				C670.9,101.2,667.3,100.5,663.4,99z M665.6,95.1c3.1,1.2,6,1.5,8.7,0.7c2.7-0.7,5.1-2.3,7.2-4.6s3.9-5.4,5.4-9.1
				c1.7-4.2,2.6-8.1,2.7-11.6s-0.6-6.5-2.2-9c-1.6-2.5-4.1-4.5-7.5-5.8c-3.3-1.3-6.3-1.5-8.9-0.7c-2.7,0.8-5.1,2.4-7.1,4.8
				s-3.7,5.3-5.1,8.7c-1.7,4.2-2.5,8-2.7,11.6c-0.1,3.5,0.6,6.6,2.1,9.2C659.7,91.8,662.2,93.8,665.6,95.1z"/>
			<path class="st2" d="M689.9,107.2l1.4-2.4l5,1.2c0.4,0.1,0.8,0.1,1.1,0c0.3-0.1,0.6-0.3,0.8-0.7l12.6-21.6l-5.9-3.5l2.1-3.6
				l6.1,3.5c2.5-3.6,4.9-6.3,7.3-7.8c2.4-1.6,4.8-2.3,7.2-2.2c2.4,0.1,4.8,0.9,7.2,2.3c0.7,0.4,1.6,1.1,2.8,2
				c1.2,0.9,2.1,1.6,2.7,2.2l-3.2,5.6l-1.3-0.8c-0.5-0.5-0.9-1.1-1.5-1.7c-0.5-0.6-1.1-1.2-1.7-1.8s-1.4-1.2-2.3-1.7
				c-1.1-0.7-2.2-1.1-3-1.3c-0.9-0.2-1.6-0.2-2.2,0c-0.4,0.1-1.1,0.9-2.1,2.4s-2.4,3.6-3.9,6.2l9.1,5.3l-2.1,3.6l-9-5.3l-12.6,21.6
				c-0.2,0.4-0.3,0.8-0.2,1.1c0.1,0.3,0.3,0.6,0.5,0.9l4.2,4.1l-1.4,2.4L689.9,107.2z M715.8,122.3l1.4-2.4l5,1.2
				c0.4,0.1,0.7,0.1,1.1,0c0.3-0.1,0.6-0.3,0.8-0.7l12.6-21.6l-5.9-3.5l2.1-3.6l6.1,3.5c2.5-3.6,4.9-6.3,7.3-7.8
				c2.4-1.6,4.8-2.3,7.2-2.2c2.4,0.1,4.8,0.9,7.2,2.3c0.7,0.4,1.6,1.1,2.8,2c1.2,0.9,2.1,1.6,2.7,2.2l-3.2,5.6l-1.3-0.8
				c-0.5-0.5-0.9-1.1-1.5-1.7c-0.5-0.6-1.1-1.2-1.7-1.8c-0.6-0.6-1.4-1.2-2.3-1.7c-1.1-0.7-2.2-1.1-3-1.3c-0.9-0.2-1.6-0.2-2.2,0
				c-0.4,0.1-1.1,0.9-2.1,2.4s-2.4,3.6-3.9,6.2l9.1,5.3l-2.1,3.6l-9-5.3L730.1,124c-0.2,0.4-0.3,0.8-0.2,1.1
				c0.1,0.3,0.3,0.6,0.5,0.9l4.2,4.1l-1.4,2.4L715.8,122.3z M742.5,137.8l1.4-2.4l5.4,1.5c0.4,0.1,0.7,0.1,1.1,0
				c0.3-0.1,0.6-0.3,0.9-0.7l11.9-20.4c0.2-0.4,0.3-0.8,0.2-1.1c-0.1-0.3-0.3-0.6-0.5-0.9l-3.8-4.3l1.4-2.5l12.7,5.5l-15.8,27.2
				c-0.2,0.4-0.3,0.8-0.2,1.1c0.1,0.3,0.3,0.6,0.5,0.8l4,4l-1.4,2.4L742.5,137.8z M772.7,105c-0.8-0.4-1.4-1-1.9-1.7
				s-0.8-1.4-0.9-2.2s0.1-1.6,0.6-2.4c0.8-1.3,1.8-2,3.1-2.2c1.3-0.1,2.5,0.1,3.6,0.8c1.4,0.8,2.3,1.7,2.8,2.8
				c0.5,1.1,0.4,2.2-0.4,3.5c-0.5,0.9-1.1,1.5-1.9,1.9c-0.8,0.4-1.6,0.5-2.4,0.5S773.6,105.5,772.7,105z"/>
			<path class="st2" d="M791.8,162.6l1,0.7l-2.6,3.3c-2.2,0-4.7-0.1-7.3-0.6c-2.7-0.4-5.3-1.6-7.8-3.6c-2.8-2.2-4.7-4.7-5.8-7.5
				c-1.1-2.8-1.3-5.8-0.6-8.9c0.6-3.1,2.1-6.1,4.4-9.1c1.8-2.4,3.9-4.1,6.3-5.3c2.4-1.2,4.9-1.9,7.4-2.1c2.6-0.2,5.1,0,7.5,0.7
				c2.4,0.7,4.5,1.8,6.4,3.2c1.4,1.1,2.5,2.2,3.4,3.3c0.9,1.1,1.6,2.2,2.1,3.1c0.5,1,0.9,1.7,1.2,2.3l-4.4,5.7l-1.3-1
				c-0.5-1.3-1-2.6-1.5-3.9c-0.5-1.3-1.1-2.6-1.9-3.9c-0.8-1.3-1.9-2.5-3.4-3.7c-0.6-0.5-1.5-0.9-2.7-1.3s-2.2-0.5-3.1-0.3
				c-0.8,0.1-1.6,0.4-2.5,0.7c-0.9,0.4-1.9,1-3,2s-2.5,2.4-4,4.4c-2.8,3.6-4.2,7.1-4.2,10.3c0,3.3,1.6,6.1,4.6,8.4
				c1.3,1,2.6,1.7,4,2.1c1.4,0.4,2.8,0.7,4.2,0.8C789.6,162.5,790.8,162.6,791.8,162.6z"/>
			<path class="st2" d="M802.9,186.3c-2.5-2.3-4.2-4.9-5.2-7.8c-1-2.9-1.1-6-0.4-9.1c0.7-3.2,2.5-6.3,5.3-9.3
				c2.5-2.8,5.4-4.7,8.5-5.8c3.1-1.1,6.3-1.4,9.5-0.9s6,2,8.6,4.4c2.4,2.3,4.1,4.7,4.9,7.3c0.8,2.6,1,5.1,0.4,7.6
				c-0.6,2.5-1.8,4.7-3.6,6.7c-0.2,0.2-0.5,0.5-0.8,0.8c-0.4,0.4-0.7,0.7-1.1,1c-0.4,0.3-0.7,0.6-1,0.8l-19.6-18.1l2.8-2.7
				l14.2,13.1c1.5-1.7,2.6-3.3,3.3-4.8c0.7-1.6,0.8-3.1,0.4-4.6c-0.4-1.5-1.4-3-2.9-4.4c-1.5-1.4-3-2.2-4.6-2.5
				c-1.6-0.3-3.1-0.2-4.6,0.3s-2.9,1.3-4.3,2.3s-2.6,2.1-3.7,3.4c-2,2.2-3.4,4.4-4.3,6.6c-0.9,2.3-1,4.5-0.5,6.8
				c0.6,2.3,2,4.4,4.3,6.6c1.3,1.2,2.6,2.1,4.1,2.7s2.9,1.2,4.4,1.5c1.4,0.3,2.6,0.5,3.6,0.6l0.8,0.8l-2.9,3.1
				c-2.2-0.2-4.8-0.8-7.7-1.8C807.8,190,805.2,188.4,802.9,186.3z"/>
		</g>
	</g>
	<g>
		<g>
			<path class="st2" d="M179.4,844l1.2-1.4l2.5,0.7c0.5,0.2,1.1,0.1,1.6-0.2l21.7-11.2l5.4-2.3l2.2,2L203.8,860
				c-0.1,0.2-0.1,0.5-0.2,0.8s0,0.5,0.1,0.7l1.1,2.4l-1.2,1.4l-8.9-7.8l1.2-1.4l3.7,1.3l7.3-20.1l1.4-2.7l-0.4-0.3l-21.5,11.4
				l1.8,3.6l-1.2,1.4L179.4,844z M193.3,841.7l3.2-1.8l7.6,6.7l-1.4,3.4L193.3,841.7z"/>
			<path class="st2" d="M226.6,883c-1.6-1.2-2.7-2.6-3.3-4.2s-0.7-3.4-0.3-5.3c0.4-1.9,1.2-3.7,2.5-5.5c1.4-2,3.1-3.6,5.1-4.7
				c1.9-1.1,4-1.7,6.1-1.7s4.1,0.7,6.1,2.1c1.2,0.8,2,1.7,2.5,2.7c0.5,0.9,0.8,1.9,1,2.7l0.6-0.9l3.6-5.1c0.2-0.2,0.2-0.5,0.2-0.7
				c0-0.2-0.1-0.4-0.3-0.6l-2.2-3.2l1.1-1.5l7.3,5.2l-17,23.9c-0.2,0.2-0.2,0.5-0.2,0.7c0.1,0.2,0.2,0.4,0.3,0.6l1.5,2.5l-1.1,1.5
				l-6.9-3.6l2.4-3.3l-0.3-0.2c-1.5,0.6-2.8,0.8-3.9,0.6c-1.2-0.1-2.2-0.4-3-0.8C227.7,883.7,227.1,883.4,226.6,883z M230.6,881.7
				c0.4,0.3,1,0.6,1.6,0.8c0.7,0.3,1.4,0.4,2.1,0.5c0.7,0.1,1.4,0,2.1-0.2l8.8-12.4c-0.2-0.4-0.5-0.9-0.9-1.4c-0.5-0.5-1-1-1.5-1.4
				c-0.5-0.4-0.9-0.8-1.3-1c-1.4-1-2.7-1.4-4.1-1.4c-1.4,0-2.6,0.4-3.9,1.2c-1.2,0.8-2.3,1.9-3.2,3.2c-1.1,1.5-1.8,3-2.3,4.5
				c-0.5,1.5-0.5,2.9-0.1,4.2C228.4,879.6,229.2,880.7,230.6,881.7z"/>
			<path class="st2" d="M254.3,901.6c-2-1.2-3.5-2.7-4.4-4.5c-1-1.8-1.4-3.8-1.2-5.9c0.1-2.1,0.9-4.3,2.3-6.5c1.3-2,2.8-3.6,4.7-4.7
				c1.8-1.1,3.8-1.7,5.9-1.7c2.1,0,4.2,0.6,6.3,1.9c2.3,1.4,3.8,3,4.7,4.9c0.9,1.9,1.2,3.9,0.9,6c-0.3,2.1-1,4.1-2.2,6
				c-1.3,2-2.8,3.6-4.6,4.8c-1.8,1.1-3.8,1.7-5.9,1.7C258.5,903.5,256.4,902.9,254.3,901.6z M256,899.5c1.1,0.7,2.2,1,3.2,1
				c1,0,2-0.3,2.9-0.9c0.9-0.5,1.8-1.2,2.5-2.1s1.4-1.7,2-2.6c0.9-1.5,1.6-3.1,2.1-4.7c0.4-1.6,0.5-3.1,0.1-4.5
				c-0.4-1.4-1.3-2.5-2.7-3.4c-1.1-0.7-2.2-1-3.2-1c-1,0-2,0.3-2.9,0.9c-0.9,0.5-1.8,1.2-2.5,2.1c-0.8,0.8-1.4,1.7-2,2.6
				c-0.6,1-1.2,2.1-1.6,3.3c-0.4,1.2-0.7,2.3-0.8,3.5s0.1,2.3,0.5,3.3C254,897.9,254.8,898.8,256,899.5z"/>
			<path class="st2" d="M271.1,909.8l2.6-4.8l2.7,1.4l-0.4,2c-0.1,0.3-0.1,0.5,0,0.8c0,0.2,0.1,0.4,0.2,0.6c0.4,0.6,0.8,1.1,1.4,1.7
				s1.3,1,2,1.4s1.5,0.7,2.4,0.8c0.9,0.2,1.7,0.2,2.4,0c0.8-0.2,1.3-0.7,1.7-1.4c0.5-0.9,0.6-1.7,0.3-2.5c-0.3-0.7-0.9-1.6-1.8-2.4
				c-0.6-0.6-1.3-1.2-1.9-1.9s-1.3-1.2-1.9-1.9c-1.3-1.3-2.1-2.7-2.4-4.1c-0.2-1.4,0-2.8,0.7-4.1c0.7-1.2,1.7-2.1,3.1-2.6
				c1.4-0.5,2.9-0.7,4.6-0.5c1.7,0.2,3.3,0.7,4.9,1.5c1.2,0.7,2.3,1.3,3.2,2c0.9,0.7,1.7,1.4,2.6,2.3l-2.6,4.9l-2.6-1.4l0.4-2.2
				c0-0.2,0-0.5-0.1-0.7c-0.1-0.2-0.2-0.4-0.3-0.6c-0.3-0.5-0.7-0.9-1.2-1.2c-0.5-0.4-1-0.7-1.6-1c-1.3-0.7-2.4-1-3.5-0.9
				c-1.1,0-1.8,0.5-2.3,1.4c-0.5,0.9-0.6,1.8-0.3,2.7c0.3,0.9,1.1,1.9,2.3,3.1c0.5,0.5,1,1,1.5,1.5c0.5,0.5,1,1,1.5,1.5
				c1.4,1.4,2.3,2.7,2.6,4s0.1,2.6-0.7,4c-0.7,1.4-1.9,2.4-3.3,2.9c-1.5,0.5-3,0.7-4.8,0.6c-1.7-0.2-3.3-0.7-4.9-1.5
				c-1.5-0.8-2.7-1.7-3.8-2.6C273,911.6,272,910.7,271.1,909.8z"/>
			<path class="st2" d="M305.4,928.3l0.7-1.6l3.6,0.5c0.3,0,0.5,0,0.7-0.1c0.2-0.1,0.4-0.2,0.5-0.5l10.5-23.8c0.1-0.3,0.1-0.5,0-0.7
				c-0.1-0.2-0.2-0.4-0.4-0.5l-2.9-2.8l0.7-1.7l8.4,3.7l-12.2,27.7c-0.1,0.3-0.1,0.5,0,0.7c0.1,0.2,0.2,0.4,0.4,0.5l2.8,2.3
				l-0.7,1.6L305.4,928.3z"/>
			<path class="st2" d="M332.8,940.3c-2-0.8-3.7-1.9-5-3.5c-1.3-1.5-2.1-3.3-2.5-5.5c-0.3-2.1,0-4.4,1-6.9c0.9-2.3,2.1-4.2,3.8-5.6
				c1.6-1.5,3.5-2.4,5.5-2.8c2.1-0.4,4.2-0.2,6.3,0.6c2,0.8,3.6,1.9,4.7,3.2c1.1,1.4,1.8,2.9,2.1,4.5c0.2,1.7,0.1,3.3-0.6,4.9
				c-0.1,0.2-0.2,0.4-0.3,0.7c-0.1,0.3-0.3,0.6-0.4,0.9c-0.2,0.3-0.3,0.5-0.4,0.7l-16.3-6.3l1-2.3l11.8,4.5c0.5-1.4,0.8-2.6,0.8-3.7
				c0-1.1-0.3-2.1-0.8-2.9c-0.6-0.8-1.5-1.5-2.9-2c-1.2-0.5-2.4-0.6-3.4-0.4s-1.9,0.6-2.7,1.3s-1.5,1.5-2.1,2.4
				c-0.6,0.9-1.1,1.9-1.5,2.9c-0.7,1.8-1,3.5-1,5.1s0.5,3,1.3,4.2s2.3,2.2,4.2,3c1,0.4,2.1,0.6,3.2,0.7s2.1,0,3-0.2s1.7-0.3,2.3-0.5
				l0.7,0.3l-1,2.6c-1.4,0.4-3.1,0.7-5.1,0.8C336.7,941.4,334.7,941.1,332.8,940.3z"/>
			<path class="st2" d="M371,927.4l-0.8,2.6l-8.1-2.6l-4.7,14.6c-0.2,0.7-0.1,1.3,0.2,1.9c0.4,0.6,0.9,1.1,1.5,1.5s1.2,0.7,1.6,0.8
				c0.5,0.2,1.1,0.3,1.8,0.3c0.7,0,1.3,0.1,1.6,0l0.9,0.3l-0.6,1.9c-0.3,0.1-0.8,0.2-1.6,0.3c-0.8,0.1-1.7,0.2-2.7,0.2
				c-1,0-1.9-0.1-2.8-0.4c-1.1-0.4-2.1-0.9-2.9-1.5s-1.4-1.4-1.8-2.3s-0.4-1.8-0.1-2.7l5.3-16.2l-3.7-1.2l0.7-2.2
				c0.8,0.2,1.6,0.3,2.2,0.3c0.6,0.1,1.2-0.1,1.7-0.4c0.5-0.3,0.9-1,1.3-1.9l1.2-3.2l3.9,0.5l-2.2,6.9L371,927.4z"/>
			<path class="st2" d="M368.1,951.8l0.5-1.7l2.9-0.2c0.3,0,0.5-0.1,0.7-0.2c0.2-0.1,0.3-0.3,0.4-0.6l4-14.9
				c0.1-0.4,0.1-0.7-0.1-0.9c-0.2-0.2-0.3-0.4-0.5-0.5l-2.5-2l0.5-1.8l8,1l-1.4,5l0.3,0.1c1.3-1.1,2.5-1.9,3.5-2.5
				c1-0.5,1.9-0.8,2.7-0.9s1.6-0.1,2.3,0.1c0.6,0.2,1.3,0.5,2.1,0.8c0.7,0.4,1.3,0.9,1.7,1.7l-1.4,5.3l-3-0.8l-0.2-1.7
				c0-0.4-0.2-0.8-0.6-1.2s-0.8-0.6-1.3-0.7c-0.8-0.2-1.6-0.2-2.4,0c-0.7,0.2-1.5,0.6-2.1,1c-0.7,0.4-1.3,0.8-1.8,1.2l-3.5,12.8
				c-0.1,0.5,0,0.9,0.5,1.2l3.2,1.9l-0.5,1.7L368.1,951.8z"/>
			<path class="st2" d="M399.1,960.1c-1.5-0.3-2.6-0.9-3.5-1.7c-0.9-0.9-1.5-1.8-1.9-3c-0.3-1.1-0.4-2.3-0.1-3.4
				c0.3-1.5,1-2.7,1.9-3.6c1-0.9,2.1-1.5,3.4-1.9c1.3-0.4,2.6-0.6,4-0.6c1.4,0,2.6,0.1,3.8,0.4c0.2,0,0.6,0.1,1.1,0.3
				c0.5,0.2,1,0.3,1.5,0.5c0.5,0.2,0.9,0.3,1,0.4l0.6-2.9c0.4-1.7,0.2-2.9-0.6-3.8c-0.7-0.8-1.8-1.4-3.1-1.7
				c-0.7-0.2-1.5-0.2-2.3-0.1s-1.6,0.3-2.4,0.5s-1.5,0.5-2.2,0.7s-1.2,0.5-1.7,0.7l-1-0.2l0.9-4.4c1-0.1,2-0.2,2.9-0.3
				s2-0.1,3.1-0.1c1.1,0,2.4,0.2,3.8,0.5c1.4,0.3,2.8,0.8,4,1.5c1.2,0.7,2.1,1.6,2.7,2.9c0.6,1.3,0.7,2.9,0.2,5l-2.5,12.1
				c-0.1,0.6,0,1.1,0.4,1.5s0.8,0.7,1.3,0.8c0.3,0.1,0.7,0.1,1.1,0c0.4-0.1,0.8-0.2,1.2-0.3l0.4,0.1l-0.4,2
				c-0.3,0.2-0.8,0.3-1.4,0.5s-1.2,0.3-1.8,0.4c-0.6,0.1-1.2,0.1-1.6,0c-1.4-0.3-2.4-0.8-2.9-1.7c-0.6-0.8-0.7-1.9-0.4-3.2l-0.4-0.1
				c-1.1,1-2.2,1.7-3.3,2c-1.1,0.4-2.2,0.5-3.2,0.5C400.8,960.3,399.9,960.3,399.1,960.1z M401.9,957.3c1,0.2,2.1,0.2,3.4,0.1
				c1.3-0.1,2.4-0.6,3.2-1.3l1.3-6.4c-2.1-0.4-3.9-0.7-5.5-0.8c-1.6-0.1-2.9,0.1-3.9,0.6c-1,0.5-1.7,1.4-1.9,2.8
				c-0.2,1.1-0.2,2,0.1,2.7c0.3,0.7,0.8,1.2,1.4,1.6C400.6,956.9,401.3,957.1,401.9,957.3z"/>
			<path class="st2" d="M421.3,963l0.8-5.4l3,0.5l0.3,2c0,0.3,0.1,0.5,0.2,0.7c0.1,0.2,0.3,0.4,0.4,0.5c0.5,0.4,1.2,0.8,1.9,1.1
				c0.7,0.3,1.5,0.5,2.3,0.7c0.8,0.1,1.7,0.1,2.5,0c0.9-0.1,1.6-0.4,2.3-0.9c0.6-0.4,1-1.1,1.2-1.9c0.2-1,0-1.8-0.6-2.4
				c-0.5-0.6-1.4-1.2-2.5-1.7c-0.8-0.4-1.6-0.7-2.4-1.1c-0.8-0.4-1.6-0.7-2.4-1.1c-1.7-0.8-2.9-1.8-3.6-3.1c-0.7-1.3-1-2.6-0.7-4.1
				c0.2-1.4,0.9-2.6,2-3.5s2.5-1.6,4.1-2c1.6-0.4,3.3-0.5,5.1-0.2c1.4,0.2,2.6,0.5,3.7,0.9s2.1,0.8,3.2,1.3l-0.8,5.5l-3-0.4L438,946
				c0-0.2-0.1-0.4-0.3-0.6c-0.2-0.2-0.3-0.3-0.4-0.4c-0.5-0.3-1-0.6-1.6-0.8c-0.6-0.2-1.2-0.3-1.8-0.4c-1.4-0.2-2.6-0.1-3.6,0.3
				s-1.6,1.1-1.7,2.1c-0.2,1,0.1,1.9,0.7,2.6s1.7,1.4,3.2,2.2c0.7,0.3,1.3,0.6,2,0.9s1.3,0.6,2,0.9c1.8,0.8,3.1,1.8,3.8,2.9
				s1,2.4,0.7,4c-0.2,1.6-0.9,2.8-2.1,3.9s-2.6,1.7-4.3,2.1c-1.7,0.4-3.4,0.5-5.1,0.2c-1.6-0.2-3.1-0.6-4.5-1.2
				C423.6,964.1,422.4,963.5,421.3,963z"/>
			<path class="st2" d="M470.3,970c-2-0.1-3.7-0.7-5-1.8c-1.4-1.1-2.4-2.5-3-4.3c-0.7-1.8-0.9-3.8-0.8-6c0.1-2.5,0.7-4.7,1.8-6.7
				c1-2,2.5-3.6,4.2-4.7c1.8-1.1,3.9-1.6,6.3-1.5c1.4,0.1,2.6,0.4,3.5,0.9c0.9,0.5,1.7,1.1,2.3,1.8l0.1-1l0.4-6.2
				c0-0.3,0-0.5-0.2-0.7s-0.3-0.3-0.6-0.4l-3.5-1.6l0.1-1.9l9,0.5l-1.6,29.2c0,0.3,0.1,0.5,0.2,0.7c0.2,0.2,0.4,0.3,0.6,0.4l2.7,1.3
				l-0.1,1.9l-7.7,0.7l0.2-4.1l-0.4,0c-0.9,1.2-1.9,2.1-3,2.6c-1.1,0.5-2.1,0.8-3,0.9C471.7,970,470.9,970.1,470.3,970z
				 M473.1,966.8c0.5,0,1.1,0,1.8-0.2s1.4-0.4,2-0.7c0.7-0.3,1.2-0.8,1.6-1.3l0.9-15.2c-0.4-0.3-0.9-0.5-1.6-0.7
				c-0.7-0.2-1.3-0.3-2-0.4c-0.7-0.1-1.2-0.2-1.6-0.2c-1.7-0.1-3.1,0.2-4.2,1s-2,1.8-2.6,3.1c-0.6,1.3-0.9,2.8-1,4.4
				c-0.1,1.8,0.1,3.5,0.5,5s1.1,2.7,2.1,3.7S471.4,966.7,473.1,966.8z"/>
			<path class="st2" d="M503.6,971c-2.2,0-4.2-0.4-6-1.3c-1.8-0.9-3.2-2.3-4.3-4.1s-1.6-4.1-1.7-6.8c0-2.4,0.4-4.6,1.4-6.6
				c1-2,2.3-3.5,4.1-4.7c1.8-1.2,3.8-1.8,6.1-1.8c2.2,0,4,0.4,5.6,1.2s2.8,2,3.6,3.4c0.8,1.4,1.3,3,1.3,4.8c0,0.2,0,0.4,0,0.8
				c0,0.3,0,0.7-0.1,1c0,0.3-0.1,0.6-0.1,0.8l-17.5,0.3l0.1-2.5l12.6-0.2c0-1.5-0.2-2.7-0.6-3.8c-0.4-1-1-1.8-1.9-2.3
				s-2-0.8-3.4-0.8c-1.3,0-2.4,0.3-3.3,0.9s-1.5,1.3-2,2.2c-0.5,0.9-0.8,1.9-1,3c-0.2,1.1-0.3,2.2-0.3,3.3c0,1.9,0.3,3.6,0.9,5.1
				c0.6,1.5,1.5,2.6,2.8,3.4c1.3,0.8,3,1.2,5,1.2c1.1,0,2.2-0.2,3.2-0.6c1-0.4,1.9-0.8,2.7-1.3c0.8-0.5,1.5-0.9,2-1.3l0.7,0l0,2.8
				c-1.1,0.9-2.6,1.8-4.4,2.6C507.6,970.5,505.7,971,503.6,971z"/>
			<path class="st2" d="M535.9,980.3l-0.2-1.7l2.8-1.3c0.2-0.1,0.4-0.2,0.6-0.4s0.2-0.4,0.2-0.7l-2.7-26.5c0-0.3-0.1-0.5-0.3-0.6
				s-0.4-0.2-0.6-0.3l-2.9-0.9l-0.2-1.8l7.5-1.9l0.4,4l0.4,0c0.5-0.9,1-1.7,1.7-2.4s1.5-1.3,2.5-1.7c1-0.5,2.1-0.8,3.3-0.9
				c2-0.2,3.8,0.1,5.3,1c1.5,0.9,2.8,2.1,3.7,3.8c0.9,1.7,1.5,3.6,1.8,5.8c0.2,2.4,0,4.7-0.7,6.8c-0.7,2.1-1.9,3.9-3.4,5.2
				c-1.6,1.4-3.6,2.2-6,2.4c-1.4,0.1-2.6,0-3.7-0.3c-1-0.4-1.9-0.8-2.6-1.4l0.1,1l0.8,8.1c0,0.3,0.1,0.5,0.3,0.6
				c0.2,0.1,0.4,0.2,0.6,0.2l3.6,0.7l0.2,1.7L535.9,980.3z M541.1,949.9l1.5,14.8c0.5,0.2,1.1,0.4,1.8,0.5c0.7,0.1,1.4,0.1,2,0.1
				s1.2,0,1.6-0.1c1.7-0.2,3-0.7,4-1.6c1-0.9,1.7-2,2.1-3.4c0.4-1.4,0.5-2.9,0.3-4.5c-0.2-1.8-0.6-3.4-1.3-4.8
				c-0.7-1.4-1.6-2.5-2.7-3.2c-1.2-0.7-2.6-1-4.3-0.9c-1.3,0.1-2.4,0.5-3.3,1.2S541.5,949.3,541.1,949.9z"/>
			<path class="st2" d="M578.1,964.6c-2.2,0.4-4.2,0.2-6.1-0.4s-3.5-1.8-4.9-3.5c-1.3-1.7-2.2-3.8-2.7-6.4c-0.4-2.4-0.3-4.7,0.4-6.7
				c0.7-2.1,1.8-3.8,3.4-5.2c1.6-1.4,3.5-2.3,5.7-2.7c2.1-0.4,4.1-0.2,5.7,0.4s3,1.6,4.1,2.9c1.1,1.3,1.7,2.8,2,4.5
				c0,0.2,0.1,0.4,0.1,0.8s0.1,0.7,0.1,1c0,0.3,0,0.6,0,0.8l-17.2,2.9l-0.3-2.5l12.5-2.1c-0.2-1.5-0.6-2.7-1.2-3.6s-1.3-1.6-2.2-2
				c-0.9-0.4-2.1-0.5-3.5-0.3c-1.3,0.2-2.4,0.7-3.1,1.4s-1.3,1.5-1.7,2.5c-0.3,1-0.5,2-0.6,3.1c0,1.1,0.1,2.2,0.2,3.3
				c0.3,1.9,0.9,3.5,1.7,4.9c0.8,1.4,1.9,2.3,3.3,3c1.4,0.6,3.1,0.8,5.1,0.4c1.1-0.2,2.1-0.5,3.1-1c0.9-0.5,1.8-1.1,2.5-1.7
				c0.7-0.6,1.3-1.1,1.8-1.6l0.7-0.1l0.5,2.8c-1,1.1-2.3,2.1-4,3.2C582,963.5,580.1,964.2,578.1,964.6z"/>
			<path class="st2" d="M603.8,959.4c-1.9,0.5-3.7,0.3-5.3-0.3c-1.6-0.7-3-1.8-4.1-3.3s-2-3.4-2.5-5.6c-0.6-2.4-0.6-4.7-0.2-6.9
				s1.4-4.1,2.8-5.7s3.3-2.7,5.6-3.2c1.4-0.3,2.6-0.4,3.7-0.1c1.1,0.2,1.9,0.6,2.7,1.1l-0.2-1l-1.4-6.1c-0.1-0.3-0.2-0.5-0.4-0.6
				c-0.2-0.1-0.4-0.2-0.6-0.2l-3.8-0.5l-0.4-1.8l8.8-2l6.6,28.5c0.1,0.3,0.2,0.5,0.4,0.6c0.2,0.1,0.4,0.2,0.7,0.2l2.9,0.5l0.4,1.8
				l-7.2,2.8l-0.9-4l-0.4,0.1c-0.6,1.5-1.3,2.6-2.1,3.4c-0.9,0.8-1.7,1.4-2.6,1.7S604.4,959.3,603.8,959.4z M605.5,955.5
				c0.5-0.1,1.1-0.3,1.7-0.7c0.6-0.3,1.2-0.7,1.8-1.2c0.5-0.5,0.9-1.1,1.2-1.7l-3.5-14.9c-0.4-0.2-1-0.2-1.7-0.2
				c-0.7,0-1.4,0.1-2,0.1c-0.7,0.1-1.2,0.2-1.6,0.3c-1.6,0.4-2.9,1.1-3.8,2.1s-1.4,2.3-1.6,3.7c-0.2,1.4-0.1,2.9,0.2,4.5
				c0.4,1.8,1,3.4,1.9,4.7c0.8,1.3,1.8,2.3,3.1,2.9C602.4,955.8,603.9,955.9,605.5,955.5z"/>
			<path class="st2" d="M624,954l-0.5-1.7l3.2-1.9c0.2-0.1,0.4-0.3,0.5-0.5c0.1-0.2,0.1-0.4,0.1-0.7l-4.3-14.9
				c-0.1-0.3-0.2-0.5-0.4-0.6c-0.2-0.1-0.4-0.1-0.7-0.2l-3.7-0.1l-0.5-1.8l8.3-3.5l5.7,19.8c0.1,0.3,0.2,0.5,0.4,0.6
				c0.2,0.1,0.4,0.2,0.6,0.2l3.7-0.1l0.5,1.7L624,954z M622.2,924.8c-0.6,0.2-1.1,0.2-1.7,0.1c-0.5-0.1-1-0.3-1.5-0.6
				c-0.4-0.3-0.7-0.8-0.9-1.4c-0.3-1-0.2-1.8,0.4-2.4s1.2-1.1,2-1.4c1-0.3,1.9-0.3,2.6,0c0.7,0.3,1.2,0.8,1.5,1.7
				c0.2,0.6,0.2,1.2,0,1.7c-0.2,0.5-0.4,1-0.9,1.4C623.4,924.4,622.8,924.6,622.2,924.8z"/>
			<path class="st2" d="M641.5,948.8l-0.6-1.7l2.3-1.8c0.2-0.1,0.4-0.3,0.5-0.5c0.1-0.2,0.1-0.4,0-0.7l-4.9-14.6
				c-0.1-0.4-0.3-0.6-0.6-0.7c-0.3-0.1-0.5-0.2-0.7-0.2l-3.2-0.3l-0.6-1.7l7.2-3.6l1.7,4.9l0.3-0.1c0.5-1.7,1-3,1.5-4
				s1.1-1.8,1.7-2.3c0.6-0.5,1.3-0.9,2-1.2c0.6-0.2,1.4-0.4,2.2-0.5c0.8-0.1,1.6,0.1,2.4,0.4l1.8,5.2l-2.9,1l-1.1-1.3
				c-0.3-0.3-0.6-0.5-1.2-0.6c-0.5-0.1-1-0.1-1.5,0.1c-0.8,0.3-1.5,0.7-2,1.3c-0.5,0.6-0.9,1.3-1.2,2c-0.3,0.7-0.6,1.4-0.8,2
				l4.3,12.5c0.2,0.5,0.5,0.7,1.1,0.7l3.7-0.2l0.6,1.7L641.5,948.8z"/>
			<path class="st2" d="M686.1,932.6c-1.4,0.6-2.7,0.8-3.9,0.7s-2.3-0.6-3.3-1.3c-0.9-0.7-1.6-1.6-2.1-2.7c-0.6-1.4-0.8-2.7-0.5-4
				c0.3-1.3,0.8-2.5,1.7-3.5s1.8-2,2.9-2.8s2.2-1.4,3.3-1.9c0.2-0.1,0.6-0.2,1.1-0.4s1-0.3,1.5-0.5s0.9-0.3,1.1-0.3l-1.2-2.7
				c-0.7-1.6-1.6-2.5-2.7-2.7s-2.3-0.1-3.5,0.5c-0.7,0.3-1.3,0.7-1.9,1.3c-0.6,0.6-1.1,1.2-1.6,1.8c-0.5,0.6-0.9,1.3-1.3,1.9
				c-0.4,0.6-0.7,1.1-1,1.5l-0.9,0.4l-1.8-4.1c0.7-0.7,1.5-1.3,2.2-2c0.7-0.6,1.5-1.3,2.5-1.9c0.9-0.6,2-1.2,3.3-1.8
				c1.4-0.6,2.7-1,4.1-1.1c1.4-0.2,2.7,0.1,3.9,0.8s2.2,2,3.1,3.9l5,11.3c0.2,0.5,0.6,0.9,1.2,1c0.6,0.1,1.1,0.1,1.6-0.1
				c0.3-0.1,0.6-0.4,0.9-0.7c0.3-0.3,0.5-0.6,0.8-0.9l0.4-0.2l0.8,1.9c-0.2,0.3-0.4,0.7-0.8,1.2s-0.8,1-1.2,1.4
				c-0.5,0.5-0.9,0.8-1.3,1c-1.3,0.6-2.4,0.7-3.4,0.4s-1.7-1.1-2.2-2.4l-0.3,0.1c-0.3,1.4-0.8,2.6-1.5,3.6c-0.7,0.9-1.5,1.7-2.3,2.3
				S686.8,932.3,686.1,932.6z M686.7,928.7c0.9-0.4,1.9-1,2.8-1.9c1-0.9,1.6-1.9,1.8-3l-2.6-5.9c-1.9,0.9-3.6,1.7-5,2.6
				s-2.3,1.8-2.9,2.8c-0.5,1-0.5,2.1,0,3.4c0.4,1,1,1.7,1.7,2.1c0.7,0.4,1.4,0.5,2.1,0.5C685.4,929.1,686.1,928.9,686.7,928.7z"/>
			<path class="st2" d="M715,918.9c-1.2,0.6-2.5,1-3.8,1c-1.3,0.1-2.5-0.3-3.7-1c-1.2-0.7-2.2-1.9-3.1-3.6l-5.5-10.5
				c-0.1-0.3-0.3-0.4-0.5-0.5c-0.2,0-0.4-0.1-0.7,0l-3,0.2l-0.9-1.6l6.7-4.7l7,13.3c0.6,1.2,1.3,2.2,2,3c0.7,0.7,1.4,1.2,2.3,1.3
				c0.9,0.1,2-0.2,3.2-0.8c1.3-0.7,2.2-1.4,2.9-2.2c0.6-0.8,1-1.6,1.2-2.4l-6.6-12.5c-0.1-0.3-0.3-0.4-0.5-0.5c-0.2,0-0.4-0.1-0.7,0
				l-3,0.2l-0.9-1.6l6.7-4.8l9.2,17.6c0.1,0.3,0.3,0.4,0.5,0.5c0.2,0,0.4,0.1,0.7,0l3-0.2l0.9,1.6l-6.3,4.5l-1.8-3.5l-0.3,0.1
				c-0.3,1.7-0.8,3.1-1.6,4.2C717.9,917,716.7,918,715,918.9z"/>
			<path class="st2" d="M733,908.8l-0.9-1.5l1.3-2c0.1-0.2,0.3-0.5,0.4-0.8c0.1-0.3,0.2-0.6,0.2-0.9l1.4-10.1l-9.8-4
				c-0.3-0.1-0.6-0.2-0.8-0.3s-0.5-0.1-0.8,0l-2.4,0.4l-0.9-1.5l8.6-5.2l0.9,1.5l-1,1.9l5.2,2.2l2.4,1.5l0.3-0.2l0.9-8.4l-1.9-0.5
				l-0.9-1.5l6.6-4l0.9,1.5l-1.3,2.1c-0.1,0.2-0.2,0.4-0.3,0.7c-0.1,0.3-0.2,0.6-0.2,0.9l-1.4,9.8l10.2,4.2c0.3,0.1,0.6,0.2,0.9,0.3
				c0.3,0.1,0.6,0.1,0.8,0l2.3-0.4l0.9,1.5l-8.6,5.2l-0.9-1.5l1-1.8l-5.7-2.3l-2.4-1.5l-0.3,0.2l-0.9,8.8l1.9,0.5l0.9,1.5L733,908.8
				z"/>
			<path class="st2" d="M747.5,865.9c-0.5,0.3-1,0.5-1.5,0.6c-0.5,0.1-1.1,0.1-1.6-0.1c-0.5-0.2-0.9-0.5-1.3-1
				c-0.6-0.8-0.7-1.6-0.4-2.4c0.3-0.8,0.8-1.4,1.5-1.9c0.9-0.6,1.7-0.9,2.4-0.8s1.4,0.4,1.9,1.2c0.4,0.5,0.6,1.1,0.6,1.6
				c0,0.6-0.1,1.1-0.4,1.6C748.4,865.1,748,865.5,747.5,865.9z M758.3,893l-1-1.5l2.4-2.8c0.2-0.2,0.3-0.4,0.3-0.6s0-0.5-0.2-0.7
				l-8.7-12.8c-0.2-0.2-0.4-0.4-0.6-0.4c-0.2,0-0.5,0-0.7,0.1l-3.6,1l-1-1.5l6.8-5.9l11.6,17c0.2,0.2,0.4,0.4,0.6,0.4
				c0.2,0,0.4,0,0.6,0l3.5-1.2l1,1.5L758.3,893z"/>
			<path class="st2" d="M772.6,883.1l-1.1-1.4l2.3-2.9c0.2-0.2,0.3-0.4,0.3-0.6c0-0.2,0-0.4-0.2-0.7l-15.4-20.9
				c-0.2-0.2-0.4-0.4-0.6-0.4c-0.2,0-0.5,0-0.7,0.1l-3.8,1.1l-1.1-1.5l7.4-5.4l18,24.3c0.2,0.2,0.4,0.4,0.6,0.4c0.2,0,0.5,0,0.7-0.1
				l3.4-1.3l1.1,1.4L772.6,883.1z"/>
			<path class="st2" d="M773.9,846.3c-0.5,0.4-1,0.6-1.5,0.8c-0.5,0.1-1.1,0.1-1.6,0s-1-0.4-1.3-0.9c-0.6-0.8-0.8-1.6-0.6-2.4
				c0.2-0.8,0.7-1.5,1.3-2c0.8-0.6,1.6-1,2.4-1s1.4,0.3,2,1c0.4,0.5,0.6,1,0.7,1.6c0.1,0.6,0,1.1-0.3,1.6
				C774.9,845.4,774.5,845.9,773.9,846.3z M786.8,872.5l-1.1-1.4l2.2-3c0.1-0.2,0.2-0.4,0.3-0.6c0-0.2,0-0.5-0.2-0.7l-9.6-12.1
				c-0.2-0.2-0.4-0.4-0.6-0.4c-0.2,0-0.5,0-0.7,0.1l-3.5,1.3l-1.2-1.5l6.3-6.4l12.8,16.1c0.2,0.2,0.4,0.4,0.6,0.4
				c0.2,0,0.4,0,0.6-0.1l3.4-1.5l1.1,1.4L786.8,872.5z"/>
			<path class="st2" d="M810.3,853.7c-1.7,1.5-3.6,2.5-5.6,2.9c-2,0.4-4,0.2-6-0.5c-2-0.8-3.9-2.1-5.6-4.1c-1.6-1.8-2.7-3.7-3.2-5.8
				c-0.5-2.1-0.5-4.1,0.1-6.2s1.8-3.8,3.6-5.5c2-1.8,4-2.8,6.1-3.1s4.1,0,6,0.9c1.9,0.9,3.6,2.2,5.1,3.8c1.6,1.8,2.6,3.7,3.2,5.8
				c0.6,2.1,0.5,4.1-0.1,6.2S812.2,852.1,810.3,853.7z M808.8,851.5c1-0.9,1.6-1.8,1.8-2.8c0.3-1,0.3-2,0-3.1c-0.3-1-0.7-2-1.3-3
				c-0.6-1-1.2-1.9-2-2.7c-1.2-1.3-2.5-2.4-3.9-3.3c-1.4-0.9-2.8-1.4-4.3-1.4c-1.4-0.1-2.8,0.5-4.1,1.6c-1,0.8-1.6,1.8-1.8,2.8
				c-0.3,1-0.3,2,0,3c0.2,1,0.7,2,1.2,3c0.6,1,1.2,1.9,1.9,2.7c0.8,0.9,1.7,1.7,2.7,2.5c1,0.8,2,1.4,3.1,1.8
				c1.1,0.4,2.2,0.6,3.3,0.5C806.7,852.9,807.8,852.4,808.8,851.5z"/>
		</g>
	</g>
	<g>
		<g>
			<path class="st2" d="M320.2,857.5L331,827l10.8,3.8l-3.4,17.2c-0.2,0.8,0,1.7,0.6,2.7c0.6,1,1.1,1.8,1.5,2.4
				c1.4,1.8,2.9,3.6,4.7,5.5c1.8,1.9,3.8,3.6,6.2,5.2c2.4,1.6,5,2.9,7.9,4c8.6,3,15.9,3.7,22,1.9c6.1-1.7,10.1-5.6,12.3-11.6
				c1.6-4.5,1.5-8.8-0.1-12.8c-1.7-4-4.6-7.8-8.6-11.5c-3.9-3.6-7.9-6.9-11.9-10c-4-3.1-7.8-6.2-11.4-9.5c-5.5-5-9.3-10.6-11.2-16.7
				c-2-6.2-1.8-12.7,0.6-19.5c2.1-6,5.8-10.8,10.9-14.3c5.1-3.5,11.1-5.5,18-6.1c6.8-0.6,13.9,0.4,21.2,2.9
				c4.5,1.6,8.6,3.3,12.4,5.3c3.8,1.9,7.4,4,10.7,6c3.3,2.1,6.5,4,9.5,5.9l-10.5,29.6l-10.7-3.8l3.2-16.3c0.2-0.8,0-1.7-0.6-2.7
				c-0.6-1-1.1-1.8-1.7-2.5c-0.8-1.2-1.9-2.4-3.2-3.7c-1.3-1.3-2.8-2.6-4.7-3.8c-1.9-1.2-4.2-2.3-6.9-3.2
				c-7.8-2.8-14.4-3.4-19.8-1.8c-5.3,1.6-8.8,4.6-10.3,9c-1.4,4-1.6,8.1-0.5,12.3c1,4.2,4.4,8.7,10,13.4c3.8,3.1,7.4,6.1,11,9
				c3.6,2.9,7.4,6.3,11.6,10.1c3,2.8,5.7,6,8.2,9.5c2.4,3.6,4,7.6,4.8,12.1c0.8,4.5,0.2,9.5-1.8,15c-2,5.7-5.5,10.6-10.3,14.7
				s-11.2,6.5-18.9,7.3c-7.7,0.9-16.9-0.6-27.5-4.3c-3.8-1.3-7.6-3.1-11.5-5.3c-3.9-2.2-7.8-4.6-11.7-7.2
				C328,862.8,324.1,860.1,320.2,857.5z"/>
			<path class="st2" d="M441.2,893.8l1.2-32.3l11.4,0.4l1.9,17.4c0.1,0.8,0.5,1.6,1.4,2.4c0.8,0.8,1.6,1.4,2.2,1.9
				c1.8,1.3,3.9,2.6,6.1,3.9c2.2,1.3,4.7,2.3,7.4,3.2c2.7,0.8,5.6,1.3,8.8,1.4c9.1,0.3,16.3-1.2,21.5-4.7c5.3-3.5,8-8.4,8.2-14.7
				c0.2-4.8-1.1-8.9-4-12.2c-2.8-3.3-6.7-6.1-11.6-8.4c-4.8-2.2-9.6-4.2-14.3-6s-9.3-3.7-13.7-5.7c-6.7-3.1-12-7.3-15.7-12.6
				c-3.7-5.3-5.5-11.5-5.2-18.8c0.2-6.4,2.3-12,6.2-16.9c3.9-4.8,9-8.6,15.4-11.2c6.4-2.6,13.4-3.8,21.1-3.5
				c4.7,0.2,9.2,0.6,13.4,1.4c4.2,0.7,8.2,1.6,12,2.6c3.8,1,7.4,1.9,10.8,2.8l-1.2,31.4l-11.3-0.4l-1.8-16.5
				c-0.1-0.8-0.5-1.6-1.4-2.4c-0.9-0.8-1.6-1.4-2.3-1.9c-1.2-0.9-2.5-1.7-4.1-2.6c-1.6-0.9-3.5-1.6-5.6-2.2
				c-2.2-0.6-4.7-0.9-7.5-1.1c-8.3-0.3-14.8,1.1-19.4,4.2c-4.6,3.1-7,7-7.2,11.6c-0.2,4.2,0.9,8.2,3.2,11.9c2.3,3.7,6.8,7,13.5,9.8
				c4.5,1.8,8.9,3.6,13.2,5.4c4.3,1.7,9,3.8,14.1,6.2c3.7,1.8,7.3,4,10.6,6.7c3.4,2.7,6.1,6.1,8.2,10.1c2.1,4,3,9,2.8,14.9
				c-0.2,6.1-2.1,11.8-5.5,17.1c-3.4,5.3-8.7,9.5-15.9,12.6c-7.1,3.1-16.3,4.5-27.6,4.1c-4-0.1-8.2-0.7-12.5-1.6
				c-4.4-0.9-8.8-2.1-13.3-3.4C450.1,896.5,445.7,895.1,441.2,893.8z"/>
			<path class="st2" d="M626.3,884c-12,3.7-22.9,4.5-32.8,2.3c-9.8-2.2-18.3-7.1-25.4-14.8c-7.1-7.6-12.6-17.7-16.5-30.2
				c-3.7-11.7-4.6-22.8-3-33.2c1.7-10.4,5.9-19.4,12.7-27.1c6.8-7.7,16.1-13.3,27.8-17c12.8-4,24.1-4.6,33.9-2
				c9.9,2.6,18.2,7.8,25,15.6c6.8,7.7,12,17.3,15.6,28.8c2.4,7.7,3.6,15.5,3.7,23.4s-1.3,15.3-4,22.4c-2.7,7.1-7.1,13.4-13.2,18.9
				C644.2,876.6,636.2,880.9,626.3,884z M624.5,873.2c7.9-2.5,13.8-6.5,17.9-12c4.1-5.6,6.3-12.3,6.8-20.2
				c0.5-7.9-0.8-16.5-3.7-25.9c-3.3-10.8-7.6-19.6-12.9-26.5c-5.2-6.9-11.3-11.6-18.3-14c-7-2.4-14.8-2.3-23.5,0.4
				c-8.3,2.6-14.5,6.8-18.4,12.6c-3.9,5.8-6,12.6-6.2,20.4c-0.3,7.8,1,16,3.6,24.6c3.3,10.7,7.6,19.5,12.8,26.5s11.4,11.8,18.4,14.4
				C608,876,615.8,875.9,624.5,873.2z"/>
		</g>
	</g>
	<g>
		<path class="st0" d="M358.6,353.9c0,0-0.2-6.6,4.6-17.5c4.7-10.9,39.6,15.5,39.6,15.5l-5.1,17.2c0,0-31.7-2.5-34-6.8
			C361.5,358.1,358.6,353.9,358.6,353.9z"/>
		<g>
			<g transform="translate(0.000000,512.000000) scale(0.100000,-0.100000)">
				<path class="st2" d="M4324.8,1986.7c-353-27-573-91-665-192c-30-34-35-45-32-80c2-31,10-46,31-62c27-20,33-41.3,212-40.3
					c138,0,227,25.3,295,38.3c131,24,366,85,545,141c238,75,404,122,485,136l75,13l-70,12c-39,7-124,17-190,23s-136,13-155,15
					C4770.8,1997.7,4447.8,1995.7,4324.8,1986.7z"/>
				<path class="st2" d="M5793.8,1915.7c-235,2-483-53-989-218c-405-132-540-166-782-196c-231-29-345-15-406,47l-31,32v-80
					c-1-177-29-817-37-824c-4-4-46-22-93-40s-135-57-195-87c-465-232-729-594-702-966c12-167,73-303,187-417
					c115-116,266-186,486-226c148-27,494-25,710,4c292,39,624,115,979,222c175,53,1324,459,1770,625c476,178,717,288,851,388
					c156,118,175,248,54,367c-152,150-490,252-1035,314l-190,21l-7,50c-34,215-151,735-182,809c-33,79-123,146-220,166
					C5938.8,1910.7,5863.8,1914.7,5793.8,1915.7z M6385.8,803.7c0-2,7-51,15-110c8-58,16-140,17-181c3-62,0-77-17-96
					c-91-100-954-379-1470-474c-264-49-393-60-685-61c-311,0-372,9-496,70c-87,42-148,100-180,168c-22,49-24,63-23,212
					c1,88,5,174,9,190c5,21,8,24,9,9c0-11,14-41,30-66c73-116,211-165,528-190c252-20,542,11,903,96c346,81,833,234,1171,367
					C6363.8,803.7,6385.8,810.7,6385.8,803.7z"/>
			</g>
			<path class="st1" d="M640.1,470.3c1.7-1.9,2-3.4,1.7-9.6c-0.1-4.1-0.9-12.3-1.7-18.1c-0.8-5.9-1.5-10.8-1.5-11
				c0-0.7-2.2,0-18.9,6.6c-33.8,13.3-82.5,28.6-117.1,36.7c-36.1,8.5-65.1,11.6-90.3,9.6c-31.7-2.5-45.5-7.4-52.8-19
				c-1.6-2.5-3-5.5-3-6.6c-0.1-1.5-0.4-1.2-0.9,0.9c-0.4,1.6-0.8,10.2-0.9,19c-0.1,14.9,0.1,16.3,2.3,21.2c3.2,6.8,9.3,12.6,18,16.8
				c12.4,6.1,18.5,7,49.6,7c29.2-0.1,42.1-1.2,68.5-6.1C544.7,508.2,631,480.3,640.1,470.3z"/>
		</g>
	</g>
	<g>
		<g>
			<path id="path14_3_" class="st1" d="M174.4,197.2c-0.4,0.5-2.6,3.6-4.7,6.8s-5,7.5-6.6,9.6c-16.4,22.5-24.5,41-24.6,56.3
				c-0.2,11.8,0.5,16.4,2.1,17c2,0.9,15.5-9.4,22.3-17c10.8-11.9,11.6-13,16.7-26.2c5.2-13.3,5.3-13.9,4-27.3c-0.4-4-1.8-9-3.7-12.9
				C176.9,196.9,175.6,195.5,174.4,197.2L174.4,197.2z"/>
			<path id="path18_3_" class="st1" d="M109.7,243.7c-1.2,0.5-4.7,10.3-5.7,15.7c-0.5,2.7-1.7,8.1-2.7,12c-4.7,17.7-6.6,37.2-5.1,52
				c1.1,11.5,7.8,27.2,12.4,29.1c1.6,0.6,2.1,0.1,4.7-4.8c6.4-12.5,12.8-34.9,14.2-50.1c2-20.5-2-39-10.3-47.6
				C112.2,245,110.4,243.4,109.7,243.7z"/>
			<path id="path22_3_" class="st1" d="M171.5,315.2c-16.6,9.7-34.6,25.7-45.4,40.1c-8.3,11-9.8,13.6-14.1,24.8
				c-5.6,14.5-6.1,20.5-2.7,31.8c1.4,4.5,1.6,4.7,3.2,3.7c1.8-1.2,25.8-23.2,30.2-27.6c1.3-1.3,3.3-3.4,4.4-4.4
				c1.2-1.1,2.3-2.5,2.6-3.3c0.3-0.7,1.4-2.1,2.5-3c2.2-2,6-6.7,11.1-13.9c8.3-11.6,13.5-23.2,15.2-33.5c1.1-6.4,0.7-17.2-0.6-17.7
				C177.5,312,174.6,313.4,171.5,315.2z"/>
			<path id="path26_3_" class="st1" d="M76.9,306c-1.4,0.5-7.3,17.3-9.3,26.6c-2.8,12-4.7,22.8-5.1,28.3c-0.6,8.2-1,16.2-0.8,18
				c0.9,9,1.3,11.8,2.6,17.8c1.6,7.2,9.4,25.2,12.2,28c0.8,0.9,2.8,3.2,4.3,5.2c4.1,5.1,5.3,4.8,7-1.5c4.2-15.1,8.3-43,8.3-56.9
				c0-2.1,0-5.6,0-7.8c0-4.6-0.4-11-0.9-14c-2.1-12.1-3.8-18.1-6.8-25.4C84.7,315.9,78.2,305.4,76.9,306L76.9,306z"/>
			<path id="path30_3_" class="st1" d="M140.8,407.1c-1.3,1.3-2.8,3.5-3.3,4.8c-0.5,1.2-2.4,4.3-4.3,6.9c-5.2,7.1-19.8,45-21.1,54.7
				c-2.1,16.6-2.3,22.3-1.3,35.5c0.9,12.8,5.4,33.2,7.4,34c1.9,0.7,6.8-5.1,12.2-14.2c1.3-2.2,3.4-5.5,4.9-7.4
				c4-5.4,16.4-38.1,17.2-45.9c2.1-18.2,2-30.8-0.2-41.4c-0.4-1.8-0.8-4.1-0.8-5.2c-0.3-3.3-6.3-22.7-7.3-23.5
				C143.6,404.9,142.1,405.7,140.8,407.1L140.8,407.1z"/>
			<path id="path34_3_" class="st1" d="M39.6,402.5c-1.2,0.9-2,13.6-1.4,23c0.9,15.6,8.8,33.6,22,49.8c2.8,3.5,5.6,7,6.1,7.7
				c4.2,5.3,27,29.9,28.2,30.4c1.4,0.6,1.8,0.2,2.4-2.8c1.2-5.9,1.5-12.9,0.8-22.7c-1-16-9.3-34.3-24-53.2
				c-3.4-4.3-16.1-17.6-22.5-23.6c-2.2-1.9-4.8-4.6-5.8-5.8C43.3,402.9,40.7,401.7,39.6,402.5z"/>
			<path id="path38_3_" class="st1" d="M33.6,476.1c-0.8,0.6-1.1,3.7-0.6,4.7c0.2,0.4,0.8,2.3,1.3,4.4c4.6,18.8,17.3,45.5,28.2,59.1
				c1.8,2.2,3.9,4.8,4.6,5.8c0.7,1,2,2.4,2.9,3.4c0.9,0.8,3.2,3.2,5.3,5.2c10.2,10.4,20.7,18,36.2,26.3c8.7,4.6,8.9,4.7,9.5,3.2
				c0.7-1.7-3-18.5-6.1-28.1c-3.5-10.7-15.1-33.8-19-37.8c-0.5-0.6-1.8-2.3-2.9-3.8c-2.8-3.7-9.7-11.6-11.9-13.3
				c-1-0.9-3.6-3.1-5.7-5c-5.9-5.3-15.4-11.6-24.8-16.5C35.3,475.9,34.4,475.4,33.6,476.1z"/>
			<path id="path42_3_" class="st1" d="M147.4,523.8c-2.3,1.1-7,23.9-7.5,35.8c0,1.5-0.1,4.1-0.4,5.7c-0.5,5.9-0.3,19.4,0.5,24
				c0.2,0.8,0.5,3.7,0.9,6.4c0.8,6,2.8,15.8,3.6,17.8c0.3,0.9,1.5,4.4,2.7,7.7c4,12,11.1,26,18.9,36.8c3.7,5.2,5.1,6.4,6,4.6
				c5.5-11.3,10.3-37.3,9.9-53.8c-0.1-5.3-1.2-16.9-1.8-20.2c-0.4-1.8-0.7-3.9-0.8-4.7c-0.2-3.6-4.1-15.3-7.9-24.1
				c-3.8-8.7-13.2-24.9-14.7-25.5c-0.3-0.1-1.1-1-1.5-1.9C153.7,529.7,148.1,523.4,147.4,523.8L147.4,523.8z"/>
			<path id="path46_3_" class="st1" d="M66.4,569.7c-5.8-1.4-11.9-1.8-14-0.8c-0.8,0.4-1.8,0.5-2.3,0.3c-1.4-0.5-6.1,1.8-6.7,3.4
				c-0.4,1,8.7,14.9,12.8,19.6c0.5,0.6,1.9,2.3,2.9,3.8c1.1,1.5,2.5,3.3,3.3,4.2c0.7,0.9,3.1,3.7,5.3,6.4c4.7,5.9,20.5,23,25,27.2
				c1.8,1.7,4.2,3.9,5.4,5c1.2,1.1,4,3.5,6.3,5.1c2.2,1.7,6.2,4.6,8.7,6.6c6.7,5,26.6,12.8,32.6,12.6c6.7-0.1,7.4-0.3,8.2-1.6
				c1-1.6-6.2-15.5-16-30.6c-2.1-3.2-3.9-6-4.1-6c-0.3-0.1-2.1-2.5-4.1-5.3c-3.9-5.6-4.5-6.3-12.6-15.1c-9.1-10-17.4-17.7-21.6-20.4
				c-1.1-0.7-3.4-2.4-5.3-3.8C85.8,576.9,73.3,571.4,66.4,569.7L66.4,569.7z"/>
			<path id="path50_3_" class="st1" d="M201.5,625.2c-0.5,0-2.1-0.2-3.4-0.4c-3.3-0.5-4.1,1.6-2.9,7c0.5,2.2,1,5,1.1,6.1
				c0.1,1.1,0.4,3.4,0.8,5.2c0.4,1.7,0.8,4.1,0.9,5.2s0.5,3.4,0.9,5.2c0.4,1.7,0.8,4.1,0.9,5.2c0.1,1.1,0.5,3.3,0.8,4.9
				c0.3,1.6,1.2,5.8,1.8,9.4c3.2,16.5,10.5,36.6,17.2,47.7c4.1,6.7,10.9,13.8,17.1,17.8c6.1,4,8.7,4.5,10,2.2
				c1.4-2.5,2.3-13.7,1.9-23.3c-0.4-8.9-0.8-12.7-2.4-20.7c-0.6-2.6-0.9-4.7-0.8-5c0.1-0.3-1.2-5.2-2.9-11
				c-5.3-18.1-14.3-35.3-23-44C214.8,632,204.3,625.3,201.5,625.2L201.5,625.2z"/>
			<path id="path54_3_" class="st1" d="M104.9,661.3c-3-0.7-8.2-1.8-11.6-2.6c-20.7-4.7-39.1-1.2-49.5,9.4c-1.1,1-1.7,2.2-1.4,2.5
				c0.9,1.1,15,9.4,25.9,15.2c16.1,8.7,53.8,23.2,64.7,25c17.4,2.9,31.5,2.5,41.2-1.5c6.5-2.7,7.7-3.9,5.6-6.2
				c-2.7-3.3-16-13-26.2-19.3C138.9,674.5,114.9,663.5,104.9,661.3L104.9,661.3z"/>
			<path id="path58_3_" class="st1" d="M194.9,731.6c-11-2.2-20.8-3.8-25.2-3.9c-2.2-0.1-4.5-0.4-5.3-0.7c-0.8-0.3-2.9-0.5-4.7-0.4
				c-1.8,0.1-5.2,0.1-7.6,0.1c-31.5,0.1-56.4,9.8-64.8,25.4c-1.9,3.4-2.2,4.6-1.3,4.9c1.7,0.7,21.7,4.5,33,6.3
				c3.6,0.6,7.1,1.4,8.1,1.8c1.6,0.6,7.4,1.6,20.2,3.2c27.2,3.6,48.6,2.5,64.2-3.3c9.5-3.5,23.8-13.6,22.8-16.1
				C232.2,744.6,210,734.7,194.9,731.6z"/>
			<path id="path62_3_" class="st1" d="M257.2,775.5c-3.3,0.4-8.3,1-10.9,1.4c-16.2,2.6-31.5,11.1-35.9,19.9l-1.2,2.4l5.1,2.2
				c6.6,2.9,14.5,2.5,22.4-1.1c6.4-2.9,13-8.8,26.5-23.4C264.9,774.9,264.4,774.8,257.2,775.5z"/>
		</g>
		<g>
			<path id="path14_2_" class="st1" d="M825.6,197.2c-1.2-1.7-2.5-0.3-5.6,6.2c-1.9,3.9-3.3,8.9-3.7,12.9c-1.2,13.4-1.2,14.1,4,27.3
				c5.1,13.2,5.8,14.4,16.7,26.2c6.8,7.7,20.3,17.9,22.3,17c1.6-0.6,2.3-5.2,2.1-17c-0.1-15.3-8.2-33.8-24.6-56.3
				c-1.6-2.1-4.5-6.4-6.6-9.6C828.2,200.8,826,197.7,825.6,197.2L825.6,197.2z"/>
			<path id="path18_2_" class="st1" d="M882.8,250c-8.3,8.5-12.3,27-10.3,47.6c1.4,15.2,7.8,37.6,14.2,50.1c2.6,4.9,3.1,5.4,4.7,4.8
				c4.6-1.9,11.3-17.6,12.4-29.1c1.5-14.8-0.4-34.3-5.1-52c-1-3.9-2.2-9.3-2.7-12c-1-5.4-4.5-15.2-5.7-15.7
				C889.6,243.4,887.8,245,882.8,250z"/>
			<path id="path22_2_" class="st1" d="M822.1,312.2c-1.4,0.5-1.7,11.4-0.6,17.7c1.7,10.3,6.9,21.9,15.2,33.5
				c5.1,7.2,8.9,11.9,11.1,13.9c1.1,0.9,2.3,2.3,2.5,3c0.3,0.8,1.4,2.2,2.6,3.3c1.1,1,3.1,3.1,4.4,4.4c4.4,4.4,28.4,26.5,30.2,27.6
				c1.7,1,1.9,0.8,3.2-3.7c3.4-11.3,2.9-17.4-2.7-31.8c-4.3-11.2-5.8-13.8-14.1-24.8c-10.8-14.4-28.9-30.4-45.4-40.1
				C825.4,313.4,822.5,312,822.1,312.2z"/>
			<path id="path26_2_" class="st1" d="M923.1,306c-1.3-0.7-7.8,9.9-11.4,18.3c-3,7.3-4.7,13.3-6.8,25.4c-0.5,2.9-0.9,9.4-0.9,14
				c0,2.2-0.1,5.7,0,7.8c0,13.9,4.1,41.8,8.3,56.9c1.6,6.3,2.9,6.6,7,1.5c1.6-2,3.5-4.3,4.3-5.2c2.8-2.7,10.7-20.7,12.2-28
				c1.3-6,1.7-8.8,2.6-17.8c0.2-1.7-0.2-9.8-0.8-18c-0.4-5.5-2.3-16.3-5.1-28.3C930.4,323.3,924.5,306.5,923.1,306L923.1,306z"/>
			<path id="path30_2_" class="st1" d="M859.2,407.1c-1.3-1.4-2.8-2.2-3.3-1.8c-1,0.9-7.1,20.2-7.3,23.5c-0.1,1.1-0.4,3.4-0.8,5.2
				c-2.1,10.6-2.2,23.2-0.2,41.4c0.9,7.7,13.2,40.4,17.2,45.9c1.5,1.9,3.6,5.1,4.9,7.4c5.4,9.2,10.4,15,12.2,14.2
				c2-0.8,6.5-21.2,7.4-34c0.9-13.2,0.8-18.9-1.3-35.5c-1.3-9.7-15.9-47.5-21.1-54.7c-1.9-2.6-3.9-5.7-4.3-6.9
				C862,410.6,860.5,408.5,859.2,407.1L859.2,407.1z"/>
			<path id="path34_2_" class="st1" d="M954.6,405.3c-1,1.2-3.7,3.8-5.8,5.8c-6.4,6-19.1,19.2-22.5,23.6c-14.7,18.9-23,37.2-24,53.2
				c-0.7,9.9-0.4,16.9,0.8,22.7c0.7,3,1,3.3,2.4,2.8c1.3-0.5,24.1-25.1,28.2-30.4c0.5-0.7,3.3-4.2,6.1-7.7
				c13.2-16.3,21.1-34.2,22-49.8c0.6-9.4-0.2-22.1-1.4-23C959.3,401.7,956.7,402.9,954.6,405.3z"/>
			<path id="path38_2_" class="st1" d="M949.5,483.7c-9.5,4.9-18.9,11.2-24.8,16.5c-2.2,1.9-4.7,4.2-5.7,5
				c-2.2,1.7-9.1,9.6-11.9,13.3c-1.1,1.5-2.4,3.2-2.9,3.8c-3.8,3.9-15.4,27.1-19,37.8c-3.2,9.7-6.8,26.5-6.1,28.1
				c0.6,1.5,0.8,1.5,9.5-3.2c15.5-8.3,26-15.9,36.2-26.3c2-2,4.3-4.4,5.3-5.2c0.9-0.9,2.2-2.4,2.9-3.4c0.7-1,2.8-3.5,4.6-5.8
				c10.9-13.6,23.6-40.3,28.2-59.1c0.6-2.1,1.2-4,1.3-4.4c0.6-1.1,0.2-4.2-0.6-4.7C965.6,475.4,964.7,475.9,949.5,483.7z"/>
			<path id="path42_2_" class="st1" d="M852.6,523.8c-0.7-0.3-6.3,5.9-7.8,8.8c-0.4,0.9-1.2,1.8-1.5,1.9
				c-1.4,0.6-10.8,16.8-14.7,25.5c-3.8,8.8-7.7,20.5-7.9,24.1c-0.1,0.8-0.4,2.9-0.8,4.7c-0.6,3.2-1.7,14.9-1.8,20.2
				c-0.4,16.5,4.3,42.5,9.9,53.8c0.9,1.7,2.3,0.6,6-4.6c7.9-10.8,14.9-24.7,18.9-36.8c1.1-3.4,2.3-6.8,2.7-7.7
				c0.9-2.1,2.8-11.8,3.6-17.8c0.3-2.7,0.7-5.5,0.9-6.4c0.8-4.6,1-18.1,0.5-24c-0.2-1.6-0.3-4.1-0.4-5.7
				C859.6,547.6,854.9,524.8,852.6,523.8L852.6,523.8z"/>
			<path id="path46_2_" class="st1" d="M933.6,569.7c-6.9,1.7-19.4,7.2-23.7,10.5c-1.9,1.4-4.2,3.1-5.3,3.8
				c-4.2,2.7-12.4,10.3-21.6,20.4c-8.2,8.8-8.8,9.5-12.6,15.1c-2,2.8-3.8,5.2-4.1,5.3c-0.2,0.1-2,2.8-4.1,6c-9.7,15-17,29-16,30.6
				c0.8,1.3,1.5,1.5,8.2,1.6c6,0.2,25.9-7.6,32.6-12.6c2.5-1.9,6.4-4.8,8.7-6.6c2.3-1.7,5.1-4,6.3-5.1c1.1-1.1,3.6-3.3,5.4-5
				c4.5-4.2,20.3-21.3,25-27.2c2.2-2.7,4.6-5.6,5.3-6.4c0.7-0.9,2.2-2.7,3.3-4.2c1-1.5,2.4-3.2,2.9-3.8c4.1-4.7,13.2-18.6,12.8-19.6
				c-0.6-1.6-5.3-4-6.7-3.4c-0.5,0.2-1.5,0.1-2.3-0.3C945.5,567.9,939.4,568.2,933.6,569.7L933.6,569.7z"/>
			<path id="path50_2_" class="st1" d="M798.5,625.2c-2.9,0.1-13.3,6.8-18,11.4c-8.7,8.7-17.7,25.9-23,44c-1.7,5.8-3,10.8-2.9,11
				s-0.2,2.4-0.8,5c-1.6,8-2.1,11.8-2.4,20.7c-0.4,9.6,0.5,20.8,1.9,23.3c1.3,2.3,3.9,1.8,10-2.2c6.2-3.9,13-11,17.1-17.8
				c6.7-11.1,14-31.2,17.2-47.7c0.6-3.6,1.5-7.9,1.8-9.4c0.4-1.6,0.7-3.8,0.8-4.9c0.1-1.1,0.5-3.5,0.9-5.2c0.4-1.8,0.8-4.1,0.9-5.2
				s0.5-3.5,0.9-5.2c0.4-1.8,0.8-4.1,0.8-5.2c0.1-1.1,0.6-3.8,1.1-6.1c1.2-5.3,0.4-7.5-2.9-7C800.6,625,799,625.2,798.5,625.2
				L798.5,625.2z"/>
			<path id="path54_2_" class="st1" d="M895.1,661.3c-10,2.2-34.1,13.3-48.7,22.3c-10.2,6.4-23.5,16.1-26.2,19.3
				c-2,2.2-0.9,3.5,5.6,6.2c9.7,3.9,23.8,4.4,41.2,1.5c10.9-1.8,48.6-16.4,64.7-25c11-5.8,25-14,25.9-15.2c0.3-0.3-0.4-1.4-1.4-2.5
				c-10.4-10.6-28.8-14.1-49.5-9.4C903.3,659.5,898.1,660.6,895.1,661.3L895.1,661.3z"/>
			<path id="path58_2_" class="st1" d="M765.9,748.9c-1.1,2.5,13.2,12.6,22.8,16.1c15.6,5.8,37,6.9,64.2,3.3
				c12.7-1.6,18.5-2.6,20.2-3.2c0.9-0.4,4.5-1.2,8.1-1.8c11.3-1.8,31.3-5.7,33-6.3c0.8-0.3,0.6-1.5-1.3-4.9
				c-8.4-15.6-33.2-25.4-64.8-25.4c-2.4,0.1-5.8,0-7.6-0.1c-1.8-0.1-3.8,0.1-4.7,0.4c-0.8,0.3-3.1,0.6-5.3,0.7
				c-4.4,0.1-14.2,1.7-25.2,3.9C790,734.7,767.8,744.6,765.9,748.9z"/>
			<path id="path62_2_" class="st1" d="M737,777c13.4,14.6,20.1,20.5,26.5,23.4c7.9,3.6,15.8,4,22.4,1.1l5.1-2.2l-1.2-2.4
				c-4.4-8.8-19.7-17.3-35.9-19.9c-2.7-0.4-7.6-1.1-11-1.4C735.6,774.8,735.1,774.9,737,777z"/>
		</g>
	</g>
	<path class="st2" d="M184.8,229.1l-3.8-3.3c80.1-93.1,196.3-146.4,319-146.4c122.7,0,238.9,53.4,319,146.4l-3.8,3.3
		c-79.1-92-194-144.7-315.2-144.7C378.8,84.4,263.9,137.1,184.8,229.1z"/>
	<path class="st2" d="M500,920.3c-111.2,0-216-43-295.2-121.1l3.5-3.6c78.2,77.1,181.8,119.6,291.6,119.6
		c109.1,0,212.2-42,290.2-118.2l3.5,3.6C714.8,877.8,610.4,920.3,500,920.3z"/>
</g>
<g id="Capa_2">
	<g>
		<g>
			<path id="path14" class="st2" d="M202.2,223.1c-0.4,0.5-2.3,3.3-4.3,6.2s-4.6,6.8-6.1,8.8c-15,20.6-22.4,37.5-22.5,51.5
				c-0.2,10.8,0.4,15,1.9,15.6c1.8,0.8,14.2-8.6,20.4-15.6c9.9-10.9,10.6-11.9,15.2-24c4.8-12.1,4.8-12.7,3.7-25
				c-0.4-3.6-1.6-8.2-3.4-11.8C204.5,222.8,203.3,221.6,202.2,223.1L202.2,223.1z"/>
			<path id="path18" class="st2" d="M143.1,265.6c-1.1,0.5-4.3,9.5-5.2,14.4c-0.4,2.5-1.5,7.4-2.5,11c-4.3,16.2-6,34-4.7,47.6
				c1,10.5,7.1,24.9,11.3,26.6c1.5,0.6,1.9,0.1,4.3-4.4c5.8-11.4,11.7-31.9,13-45.8c1.8-18.8-1.9-35.7-9.4-43.5
				C145.4,266.8,143.7,265.3,143.1,265.6z"/>
			<path id="path22" class="st2" d="M199.6,331c-15.2,8.9-31.7,23.5-41.6,36.7c-7.6,10-9,12.4-12.9,22.7
				c-5.1,13.2-5.6,18.8-2.4,29.1c1.3,4.1,1.5,4.3,3,3.4c1.7-1.1,23.6-21.2,27.6-25.3c1.2-1.2,3.1-3.1,4.1-4c1.1-1,2.1-2.3,2.4-3
				c0.2-0.6,1.3-1.9,2.3-2.8c2-1.8,5.5-6.2,10.2-12.7c7.6-10.6,12.4-21.2,13.9-30.7c1-5.8,0.7-15.8-0.6-16.2
				C205.1,328.1,202.4,329.4,199.6,331z"/>
			<path id="path26" class="st2" d="M113.1,322.6c-1.3,0.5-6.7,15.8-8.5,24.4c-2.5,10.9-4.3,20.8-4.7,25.9
				c-0.6,7.5-0.9,14.8-0.7,16.4c0.8,8.2,1.2,10.8,2.3,16.3c1.4,6.6,8.6,23.1,11.2,25.6c0.7,0.8,2.5,2.9,4,4.7
				c3.7,4.6,4.9,4.4,6.4-1.4c3.8-13.8,7.5-39.3,7.6-52c0-1.9,0-5.1,0-7.1c0-4.2-0.4-10.1-0.8-12.8c-1.9-11.1-3.5-16.6-6.2-23.2
				C120.2,331.7,114.3,322,113.1,322.6L113.1,322.6z"/>
			<path id="path30" class="st2" d="M171.5,415.1c-1.2,1.2-2.6,3.2-3,4.3c-0.4,1.1-2.2,3.9-3.9,6.3c-4.7,6.5-18.1,41.1-19.3,50
				c-1.9,15.2-2.1,20.4-1.2,32.4c0.8,11.7,4.9,30.4,6.8,31.1c1.7,0.7,6.2-4.6,11.2-13c1.1-2,3.1-5,4.5-6.7c3.7-5,15-34.9,15.8-41.9
				c1.9-16.6,1.8-28.2-0.1-37.8c-0.3-1.6-0.7-3.7-0.7-4.7c-0.3-3-5.8-20.7-6.7-21.5C174.1,413,172.7,413.8,171.5,415.1L171.5,415.1z
				"/>
			<path id="path34" class="st2" d="M79,410.8c-1.1,0.8-1.8,12.5-1.3,21c0.8,14.3,8.1,30.7,20.1,45.6c2.6,3.2,5.1,6.4,5.6,7
				c3.8,4.9,24.7,27.3,25.8,27.8c1.3,0.5,1.6,0.2,2.2-2.5c1.1-5.4,1.3-11.8,0.7-20.8c-0.9-14.7-8.5-31.4-21.9-48.7
				c-3.1-4-14.7-16.1-20.6-21.6c-2-1.7-4.4-4.2-5.3-5.3C82.3,411.2,80,410.1,79,410.8z"/>
			<path id="path38" class="st2" d="M73.4,478.1c-0.7,0.5-1,3.3-0.5,4.3c0.1,0.3,0.7,2.1,1.2,4c4.2,17.2,15.9,41.6,25.8,54.1
				c1.6,2,3.5,4.4,4.2,5.3c0.6,0.9,1.8,2.2,2.6,3.1c0.9,0.8,3,2.9,4.8,4.8c9.3,9.5,19,16.5,33.1,24.1c8,4.2,8.1,4.3,8.7,2.9
				c0.6-1.5-2.7-16.9-5.6-25.7c-3.2-9.8-13.8-31-17.3-34.5c-0.5-0.5-1.7-2.1-2.7-3.4c-2.5-3.4-8.9-10.6-10.9-12.2
				c-0.9-0.8-3.3-2.9-5.2-4.6c-5.4-4.9-14.1-10.6-22.7-15.1C75,477.9,74.2,477.5,73.4,478.1z"/>
			<path id="path42" class="st2" d="M177.6,521.7c-2.1,1-6.4,21.8-6.9,32.7c0,1.4-0.1,3.8-0.3,5.2c-0.5,5.4-0.3,17.8,0.4,21.9
				c0.1,0.8,0.5,3.4,0.8,5.8c0.7,5.5,2.5,14.4,3.3,16.3c0.3,0.8,1.4,4,2.4,7.1c3.7,11,10.1,23.7,17.3,33.6c3.4,4.8,4.7,5.8,5.5,4.2
				c5.1-10.3,9.4-34.1,9-49.2c-0.1-4.8-1.1-15.5-1.7-18.4c-0.3-1.6-0.7-3.6-0.7-4.3c-0.2-3.3-3.8-14-7.2-22
				c-3.5-7.9-12.1-22.8-13.4-23.3c-0.3-0.1-1-0.9-1.4-1.8C183.3,527.1,178.2,521.4,177.6,521.7L177.6,521.7z"/>
			<path id="path46" class="st2" d="M103.4,563.7c-5.3-1.3-10.8-1.6-12.8-0.8c-0.8,0.3-1.7,0.4-2.1,0.2c-1.2-0.5-5.5,1.7-6.1,3.2
				c-0.4,0.9,8,13.7,11.7,18c0.5,0.5,1.8,2.1,2.7,3.4c1,1.4,2.3,3,3,3.8s2.9,3.4,4.8,5.9c4.3,5.4,18.7,21,22.9,24.8
				c1.6,1.5,3.9,3.5,4.9,4.6c1.1,1,3.7,3.2,5.7,4.7c2.1,1.6,5.7,4.2,7.9,6c6.1,4.6,24.3,11.7,29.8,11.5c6.1-0.1,6.8-0.2,7.5-1.5
				c0.9-1.4-5.7-14.2-14.6-28c-1.9-3-3.6-5.5-3.7-5.5c-0.2-0.1-1.9-2.2-3.7-4.8c-3.5-5.1-4.1-5.8-11.6-13.8
				c-8.4-9.2-15.9-16.2-19.7-18.7c-1-0.7-3.2-2.2-4.9-3.5C121.2,570.3,109.8,565.3,103.4,563.7L103.4,563.7z"/>
			<path id="path50" class="st2" d="M227,614.5c-0.4,0-1.9-0.2-3.1-0.4c-3-0.5-3.8,1.5-2.6,6.4c0.5,2,0.9,4.5,1,5.5
				c0.1,1,0.4,3.1,0.7,4.7c0.4,1.6,0.7,3.7,0.8,4.8c0.1,1,0.5,3.1,0.8,4.8c0.4,1.6,0.7,3.7,0.8,4.8c0.1,1,0.4,3,0.8,4.5
				c0.2,1.4,1.1,5.3,1.6,8.6c2.9,15.1,9.6,33.5,15.7,43.6c3.8,6.2,10,12.7,15.6,16.3c5.6,3.7,8,4.2,9.2,2c1.3-2.2,2.1-12.5,1.7-21.3
				c-0.3-8.1-0.8-11.6-2.2-18.9c-0.5-2.3-0.8-4.3-0.7-4.6c0.1-0.2-1.1-4.8-2.7-10.1c-4.8-16.5-13.1-32.3-21-40.2
				C239.2,620.7,229.6,614.6,227,614.5L227,614.5z"/>
			<path id="path54" class="st2" d="M138.7,647.5c-2.7-0.6-7.5-1.6-10.6-2.4c-19-4.3-35.8-1.1-45.3,8.6c-1,1-1.6,2-1.3,2.2
				c0.8,1,13.7,8.6,23.7,13.9c14.7,7.9,49.2,21.2,59.2,22.9c15.9,2.7,28.8,2.2,37.7-1.4c5.9-2.5,7-3.6,5.1-5.7
				c-2.5-3-14.6-11.9-23.9-17.7C169.8,659.6,147.8,649.5,138.7,647.5L138.7,647.5z"/>
			<path id="path58" class="st2" d="M221,711.8c-10.1-2-19-3.4-23.1-3.6c-2-0.1-4.1-0.4-4.8-0.6c-0.8-0.3-2.7-0.5-4.3-0.4
				c-1.6,0.1-4.8,0.1-7,0.1c-28.8,0.1-51.6,9-59.2,23.3c-1.7,3.1-2,4.2-1.2,4.5c1.5,0.6,19.8,4.1,30.1,5.8c3.3,0.5,6.5,1.3,7.4,1.6
				c1.5,0.6,6.8,1.5,18.4,2.9c24.9,3.3,44.5,2.3,58.7-3c8.7-3.2,21.8-12.5,20.8-14.7C255.1,723.7,234.8,714.7,221,711.8z"/>
			<path id="path62" class="st2" d="M277.9,752c-3.1,0.3-7.6,0.9-10,1.3c-14.8,2.4-28.8,10.1-32.8,18.2l-1.1,2.2l4.6,2.1
				c6,2.7,13.3,2.3,20.5-1c5.8-2.6,11.9-8,24.2-21.4C285,751.4,284.5,751.3,277.9,752z"/>
		</g>
		<g>
			<path id="path14_1_" class="st2" d="M797.8,223.1c-1.1-1.5-2.3-0.3-5.1,5.7c-1.7,3.6-3,8.2-3.4,11.8c-1.1,12.3-1.1,12.9,3.7,25
				c4.7,12.1,5.3,13.1,15.2,24c6.3,7,18.6,16.4,20.4,15.6c1.5-0.6,2.1-4.8,1.9-15.6c-0.1-14-7.5-30.9-22.5-51.5
				c-1.5-1.9-4.1-5.9-6.1-8.8S798.2,223.6,797.8,223.1L797.8,223.1z"/>
			<path id="path18_1_" class="st2" d="M850.1,271.4c-7.6,7.8-11.3,24.7-9.4,43.5c1.3,13.9,7.2,34.4,13,45.8c2.4,4.5,2.8,5,4.3,4.4
				c4.2-1.7,10.3-16.1,11.3-26.6c1.4-13.5-0.4-31.3-4.7-47.6c-0.9-3.6-2-8.5-2.5-11c-0.9-4.9-4.1-13.9-5.2-14.4
				C856.3,265.3,854.6,266.8,850.1,271.4z"/>
			<path id="path22_1_" class="st2" d="M794.6,328.2c-1.2,0.5-1.6,10.4-0.6,16.2c1.5,9.5,6.3,20.1,13.9,30.7
				c4.7,6.6,8.1,10.9,10.2,12.7c1,0.8,2.1,2.1,2.3,2.8c0.3,0.7,1.3,2,2.4,3c1,1,2.9,2.8,4.1,4c4,4,26,24.2,27.6,25.3
				c1.5,0.9,1.7,0.8,3-3.4c3.1-10.4,2.7-15.9-2.4-29.1c-3.9-10.2-5.3-12.6-12.9-22.7c-9.9-13.2-26.4-27.8-41.6-36.7
				C797.6,329.4,794.9,328.1,794.6,328.2z"/>
			<path id="path26_1_" class="st2" d="M886.9,322.6c-1.2-0.6-7.2,9.1-10.4,16.7c-2.8,6.7-4.3,12.2-6.2,23.2
				c-0.5,2.7-0.9,8.6-0.8,12.8c0,2,0,5.2,0,7.1c0,12.7,3.7,38.2,7.6,52c1.5,5.7,2.7,6,6.4,1.4c1.4-1.8,3.2-3.9,4-4.7
				c2.6-2.5,9.7-19,11.2-25.6c1.2-5.5,1.5-8.1,2.3-16.3c0.2-1.6-0.2-8.9-0.7-16.4c-0.3-5-2.1-14.9-4.7-25.9
				C893.6,338.4,888.2,323.1,886.9,322.6L886.9,322.6z"/>
			<path id="path30_1_" class="st2" d="M828.5,415.1c-1.2-1.3-2.6-2-3-1.7c-0.9,0.8-6.5,18.5-6.7,21.5c-0.1,1-0.4,3.1-0.7,4.7
				c-2,9.7-2,21.2-0.1,37.8c0.8,7.1,12.1,37,15.8,41.9c1.4,1.7,3.3,4.7,4.5,6.7c4.9,8.4,9.5,13.7,11.2,13c1.9-0.7,5.9-19.4,6.8-31.1
				c0.9-12.1,0.7-17.3-1.2-32.4c-1.2-8.9-14.6-43.5-19.3-50c-1.7-2.4-3.5-5.2-3.9-6.3C831,418.3,829.7,416.3,828.5,415.1
				L828.5,415.1z"/>
			<path id="path34_1_" class="st2" d="M915.7,413.4c-0.9,1.1-3.4,3.5-5.3,5.3c-5.9,5.5-17.5,17.6-20.6,21.6
				c-13.4,17.3-21,34-21.9,48.7c-0.6,9-0.4,15.4,0.7,20.8c0.6,2.7,0.9,3,2.2,2.5c1.2-0.4,22-22.9,25.8-27.8c0.5-0.6,3-3.8,5.6-7
				c12-14.9,19.3-31.3,20.1-45.6c0.5-8.6-0.2-20.2-1.3-21C920,410.1,917.7,411.2,915.7,413.4z"/>
			<path id="path38_1_" class="st2" d="M911.1,485.1c-8.7,4.5-17.3,10.2-22.7,15.1c-2,1.7-4.3,3.8-5.2,4.6c-2,1.6-8.3,8.8-10.9,12.2
				c-1,1.4-2.2,2.9-2.7,3.4c-3.5,3.6-14.1,24.7-17.3,34.5c-2.9,8.9-6.2,24.2-5.6,25.7c0.5,1.4,0.7,1.3,8.7-2.9
				c14.1-7.6,23.8-14.5,33.1-24.1c1.9-1.9,4-4,4.8-4.8c0.8-0.9,2-2.2,2.6-3.1s2.6-3.2,4.2-5.3c9.9-12.5,21.6-36.9,25.8-54.1
				c0.5-1.9,1.1-3.7,1.2-4c0.5-1,0.2-3.8-0.5-4.3C925.8,477.5,925,477.9,911.1,485.1z"/>
			<path id="path42_1_" class="st2" d="M822.4,521.7c-0.6-0.3-5.7,5.4-7.1,8c-0.4,0.9-1.1,1.7-1.4,1.8c-1.3,0.5-9.9,15.4-13.4,23.3
				c-3.5,8-7.1,18.7-7.2,22c-0.1,0.7-0.4,2.6-0.7,4.3c-0.5,3-1.6,13.6-1.7,18.4c-0.4,15.1,4,38.8,9,49.2c0.8,1.6,2.1,0.5,5.5-4.2
				c7.2-9.9,13.7-22.6,17.3-33.6c1-3.1,2.1-6.2,2.4-7.1c0.8-1.9,2.6-10.8,3.3-16.3c0.3-2.4,0.6-5,0.8-5.8c0.7-4.2,0.9-16.5,0.4-21.9
				c-0.2-1.4-0.3-3.8-0.3-5.2C828.8,543.5,824.5,522.7,822.4,521.7L822.4,521.7z"/>
			<path id="path46_1_" class="st2" d="M896.6,563.7c-6.3,1.6-17.7,6.6-21.6,9.6c-1.7,1.3-3.9,2.8-4.9,3.5
				c-3.8,2.5-11.4,9.5-19.7,18.7c-7.5,8-8,8.7-11.6,13.8c-1.8,2.6-3.5,4.7-3.7,4.8c-0.2,0.1-1.8,2.6-3.7,5.5
				c-8.9,13.8-15.5,26.5-14.6,28c0.7,1.2,1.4,1.3,7.5,1.5c5.5,0.2,23.7-6.9,29.8-11.5c2.3-1.8,5.9-4.4,7.9-6
				c2.1-1.5,4.6-3.7,5.7-4.7c1-1,3.3-3,4.9-4.6c4.1-3.8,18.5-19.4,22.9-24.8c2-2.5,4.2-5.1,4.8-5.9c0.7-0.8,2-2.5,3-3.8
				c0.9-1.3,2.2-2.9,2.7-3.4c3.8-4.3,12.1-17,11.7-18c-0.6-1.5-4.9-3.6-6.1-3.2c-0.5,0.2-1.4,0.1-2.1-0.2
				C907.4,562.1,901.8,562.4,896.6,563.7L896.6,563.7z"/>
			<path id="path50_1_" class="st2" d="M773,614.5c-2.6,0.1-12.2,6.2-16.4,10.4c-8,8-16.2,23.7-21,40.2c-1.6,5.3-2.8,9.9-2.7,10.1
				c0.1,0.2-0.2,2.2-0.7,4.6c-1.4,7.3-1.9,10.8-2.2,18.9c-0.4,8.8,0.4,19,1.7,21.3c1.2,2.1,3.6,1.6,9.2-2
				c5.6-3.6,11.8-10.1,15.6-16.3c6.1-10.1,12.8-28.5,15.7-43.6c0.6-3.3,1.4-7.2,1.6-8.6c0.3-1.5,0.6-3.4,0.8-4.5
				c0.1-1,0.5-3.2,0.8-4.8c0.3-1.6,0.7-3.7,0.8-4.8c0.1-1,0.5-3.2,0.8-4.8c0.3-1.6,0.7-3.7,0.7-4.7c0.1-1,0.5-3.5,1-5.5
				c1.1-4.9,0.4-6.8-2.6-6.4C774.9,614.3,773.4,614.5,773,614.5L773,614.5z"/>
			<path id="path54_1_" class="st2" d="M861.3,647.5c-9.2,2-31.2,12.1-44.6,20.4c-9.3,5.8-21.4,14.7-23.9,17.7
				c-1.9,2.1-0.8,3.2,5.1,5.7c8.9,3.6,21.8,4,37.7,1.4c10-1.6,44.5-15,59.2-22.9c10-5.3,22.9-12.8,23.7-13.9
				c0.2-0.3-0.3-1.3-1.3-2.2c-9.5-9.7-26.3-12.9-45.3-8.6C868.8,645.8,864,646.9,861.3,647.5L861.3,647.5z"/>
			<path id="path58_1_" class="st2" d="M743.2,727.6c-1,2.3,12.1,11.5,20.8,14.7c14.2,5.3,33.8,6.3,58.7,3c11.6-1.5,17-2.4,18.4-2.9
				c0.9-0.3,4.1-1.1,7.4-1.6c10.3-1.7,28.6-5.2,30.1-5.8c0.8-0.3,0.5-1.4-1.2-4.5c-7.7-14.3-30.4-23.2-59.2-23.3
				c-2.2,0.1-5.3,0-7-0.1s-3.5,0.1-4.3,0.4c-0.7,0.3-2.8,0.6-4.8,0.6c-4,0.1-13,1.6-23.1,3.6C765.2,714.7,744.9,723.7,743.2,727.6z"
				/>
			<path id="path62_1_" class="st2" d="M716.7,753.3c12.3,13.4,18.4,18.8,24.2,21.4c7.2,3.3,14.5,3.7,20.5,1l4.6-2.1l-1.1-2.2
				c-4-8.1-18-15.8-32.8-18.2c-2.5-0.4-7-1-10-1.3C715.5,751.3,715,751.4,716.7,753.3z"/>
		</g>
	</g>
</g>
<g id="Capa_3">
</g>
</svg>
